<?xml version="1.0" encoding="iso-8859-1"?>
<!-- Generator: Adobe Illustrator 22.0.0, SVG Export Plug-In . SVG Version: 6.00 Build 0)  -->
<svg version="1.1" id="Capa_1" xmlns="http://www.w3.org/2000/svg" xmlns:xlink="http://www.w3.org/1999/xlink" x="0px" y="0px"
	 viewBox="0 0 512 512" style="enable-background:new 0 0 512 512;" xml:space="preserve">
<g>
	<linearGradient id="SVGID_1_" gradientUnits="userSpaceOnUse" x1="514.7821" y1="-43.2179" x2="-122.4133" y2="593.9775">
		<stop  offset="0.0023" style="stop-color:#FFC599"/>
		<stop  offset="0.992" style="stop-color:#FFE8DC;stop-opacity:0"/>
	</linearGradient>
	<path style="fill:url(#SVGID_1_);" d="M428.41,171.888c-8.356-8.356-18.026-14.923-28.717-19.765
		c-28.021-12.69-50.051-35.407-62.434-63.565C314.342,36.445,262.284,0.046,201.713,0C122.402-0.06,56.551,63.163,53.566,142.418
		c-1.277,33.922,8.857,65.421,26.87,90.969c22.877,32.448,28.821,73.782,17.021,111.69
		c-16.764,53.857-10.919,104.898,20.973,136.791c55.888,55.888,170.586,31.804,256.185-53.795
		C460.213,342.474,484.298,227.777,428.41,171.888z"/>
	<g>
		<g>
			<circle style="opacity:0.1;fill:#0000CC;" cx="106.963" cy="108.227" r="34.972"/>
			<g>
				<g style="opacity:0.1;">
					<path style="fill:#0000CC;" d="M426.563,203.86l-81.504-28.128c-3.097-1.069-6.475,0.575-7.543,3.673l-43.898,127.2H133.342
						c-5.523,0-10,4.477-10,10v43.331c0,5.523,4.477,10,10,10h7.298l8.362,36.137l-24.754,24.754
						c-6.087,6.087-6.087,15.956,0,22.042v0c6.087,6.087,15.956,6.087,22.042,0l10.995-10.995l11.604,50.148
						c1.05,4.53,5.09,7.74,9.75,7.74h184.92c4.66,0,8.7-3.21,9.75-7.74l11.604-50.148l10.995,10.995
						c6.087,6.087,15.956,6.087,22.042,0v0c6.087-6.087,6.087-15.956,0-22.042l-24.754-24.754l8.362-36.137h7.298
						c5.523,0,10-4.477,10-10v-43.331c0-5.523-4.477-10-10-10H397.38l32.855-95.202C431.304,208.307,429.66,204.929,426.563,203.86z
						 M334.93,306.605l22.306-64.635c1.8-5.216,7.488-7.985,12.703-6.185h0c5.216,1.8,7.985,7.488,6.185,12.703l-20.057,58.117
						H334.93z"/>
					<path style="fill:#0000CC;" d="M143.649,195.822l10.339-20.462l30.673,93.33c0.792,2.409,3.386,3.72,5.795,2.928
						l102.233-33.599c2.409-0.792,3.72-3.386,2.928-5.795l-30.673-93.33l20.462,10.339c2.263,1.144,5.025,0.236,6.169-2.027
						l14.492-28.682l35.657,16.215c1.863,0.847,4.059,0.024,4.906-1.839l18.856-41.465l3.326,8.873
						c0.718,1.916,2.853,2.887,4.769,2.169l15.097-5.658c1.916-0.718,2.887-2.853,2.169-4.769L379.801,62.58
						c-0.345-0.92-1.041-1.665-1.936-2.072l-9.236-4.2c-1.095-0.498-2.379-0.315-3.291,0.469
						c-4.252,3.657-10.406,4.737-15.848,2.263c-5.442-2.475-8.673-7.823-8.711-13.431c-0.008-1.203-0.714-2.291-1.809-2.789
						l-9.465-4.304c-0.747-0.34-1.599-0.369-2.368-0.081l-30.277,11.348c-1.601,0.6-2.413,2.385-1.813,3.986l6.085,16.236
						c0.6,1.601,2.385,2.413,3.986,1.813l9.443-3.539l-15.03,33.05L244.95,73.749c-1.087-0.549-2.347-0.644-3.504-0.264
						l-22.509,7.398c-1.725,0.567-2.987,2.094-3.133,3.903c-0.973,12.069-9.016,22.966-21.244,26.984
						c-12.229,4.019-25.167,0.018-33.11-9.121c-1.191-1.37-3.113-1.851-4.838-1.284l-22.509,7.398
						c-1.157,0.38-2.115,1.204-2.664,2.291l-31.637,62.612c-1.144,2.263-0.236,5.025,2.027,6.168l35.652,18.015
						C139.744,198.993,142.505,198.086,143.649,195.822z"/>
				</g>
				<g>
					<g>
						<path style="fill:#FF4D4D;" d="M388.678,75.82l-15.097,5.658c-1.916,0.718-4.051-0.253-4.769-2.169l-3.326-8.873
							l-18.856,41.465c-0.847,1.863-3.044,2.686-4.906,1.839l-44.735-20.343c-1.557-0.708-2.245-2.544-1.537-4.1l19.108-42.019
							l-9.443,3.539c-1.601,0.6-3.386-0.211-3.986-1.813l-6.085-16.236c-0.6-1.601,0.211-3.386,1.813-3.986l30.277-11.348
							c0.769-0.288,1.621-0.259,2.368,0.081l9.465,4.304c1.095,0.498,1.801,1.586,1.809,2.789
							c0.039,5.608,3.269,10.956,8.711,13.431c5.442,2.475,11.596,1.394,15.848-2.263c0.912-0.785,2.196-0.968,3.291-0.469
							l9.236,4.2c0.894,0.407,1.591,1.152,1.936,2.072l11.046,29.471C391.565,72.966,390.594,75.102,388.678,75.82z"/>
					</g>
					<g>
						<path style="fill:#9494FF;" d="M337.515,158.405l-50.322,145.813c-1.069,3.097,0.575,6.475,3.673,7.543l25.7,8.869
							c3.097,1.069,6.475-0.575,7.544-3.673l33.127-95.988c1.8-5.216,7.488-7.985,12.703-6.185l0,0
							c5.216,1.8,7.985,7.488,6.185,12.703l-33.127,95.988c-1.069,3.097,0.575,6.475,3.673,7.543l25.7,8.869
							c3.097,1.069,6.475-0.575,7.543-3.673l50.322-145.813c1.069-3.097-0.575-6.475-3.673-7.543l-81.504-28.128
							C341.962,153.663,338.584,155.308,337.515,158.405z"/>
						<path style="fill:#8383FF;" d="M380.846,167.08c-6.33,8.99-16.79,14.87-28.62,14.87c-7.68,0-14.78-2.47-20.54-6.66l5.83-16.88
							c1.07-3.1,4.45-4.75,7.54-3.68L380.846,167.08z"/>
						<path style="fill:#D9D9FF;" d="M430.236,190.4l-3.55,10.29l-61.5-21.22l-31.22-10.78l3.55-10.28c1.07-3.1,4.45-4.75,7.54-3.68
							l35.79,12.35l45.72,15.78C429.656,183.93,431.306,187.31,430.236,190.4z"/>
						<path style="fill:#B3B3FF;" d="M380.846,167.08c-3.88,5.51-9.31,9.85-15.66,12.39l-31.22-10.78l3.55-10.28
							c1.07-3.1,4.45-4.75,7.54-3.68L380.846,167.08z"/>
						<path style="fill:#D9D9FF;" d="M291.064,293.001l-3.871,11.216c-1.069,3.097,0.575,6.475,3.673,7.543l25.7,8.869
							c3.097,1.069,6.475-0.575,7.544-3.673l3.871-11.216L291.064,293.001z"/>
						<path style="fill:#D9D9FF;" d="M346.869,312.26l-3.871,11.216c-1.069,3.097,0.575,6.475,3.673,7.543l25.7,8.869
							c3.097,1.069,6.475-0.575,7.543-3.673L383.785,325L346.869,312.26z"/>
						<path style="fill:#6C6CFF;" d="M404.465,193.019c-3.047,9.624-0.899,20.144,5.747,27.79l6.818,7.851l9.654-27.973
							L404.465,193.019z"/>
						<path style="fill:#6C6CFF;" d="M356.186,176.36c-0.74,1.97-1.68,3.84-2.8,5.57c-4.23,6.57-11,11.24-18.87,12.76l-10.2,1.97
							l7.37-21.37l2.28-6.6L356.186,176.36z"/>
						<path style="fill:#4D4DFF;" d="M356.186,176.36c-0.74,1.97-1.68,3.84-2.8,5.57c-0.38,0.01-0.77,0.02-1.16,0.02
							c-7.68,0-14.78-2.47-20.54-6.66l2.28-6.6L356.186,176.36z"/>
						<path style="fill:#9494FF;" d="M362.016,180.372l-5.328-1.839c-0.619-0.214-0.948-0.889-0.735-1.509l5.715-16.56l7.571,2.613
							l-5.715,16.56C363.311,180.257,362.636,180.586,362.016,180.372z"/>
						<path style="fill:#B3B3FF;" d="M402.725,194.421l-5.328-1.839c-0.619-0.214-0.948-0.889-0.735-1.509l5.715-16.56l7.571,2.613
							l-5.715,16.56C404.02,194.306,403.345,194.635,402.725,194.421z"/>
					</g>
					<g>
						<g>
							<path style="fill:#FF9D33;" d="M285.406,128.23l-20.46-10.33l30.67,93.33c0.79,2.4-0.52,5-2.93,5.79l-102.23,33.6
								c-2.41,0.79-5-0.52-5.8-2.93l-30.67-93.33l-10.34,20.46c-1.14,2.27-3.9,3.17-6.17,2.03l-35.65-18.02
								c-2.26-1.14-3.17-3.9-2.03-6.16l9.5-18.81l22.14-43.81c0.55-1.08,1.51-1.91,2.67-2.29l5.34-1.75l17.17-5.64
								c1.72-0.57,3.64-0.09,4.83,1.28c7.95,9.14,20.88,13.14,33.11,9.12c12.23-4.02,20.27-14.92,21.25-26.98
								c0.14-1.81,1.41-3.34,3.13-3.91l22.51-7.4c1.16-0.38,2.42-0.28,3.5,0.27l62.62,31.64c2.26,1.14,3.17,3.9,2.02,6.16
								l-18.01,35.66C290.426,128.47,287.666,129.38,285.406,128.23z"/>
							<path style="fill:#FF8B00;" d="M141.936,98.97c0,18.54-14.42,33.69-32.64,34.89l22.14-43.81c0.55-1.08,1.51-1.91,2.67-2.29
								l5.34-1.75C141.056,90.02,141.936,94.39,141.936,98.97z"/>
						</g>
						<g>
							<path style="fill:#FFFFFF;" d="M191.735,158.024c-4.961,0-9.59-3.155-11.222-8.118l-5.138-15.635
								c-0.984-2.994-0.744-6.193,0.678-9.007c1.421-2.814,3.854-4.906,6.849-5.89l5.065-1.665
								c6.181-2.032,12.866,1.345,14.897,7.528l5.138,15.634c2.032,6.183-1.345,12.866-7.527,14.897l-5.065,1.665
								C194.192,157.834,192.953,158.024,191.735,158.024z M191.652,127.118c-0.173,0-0.362,0.025-0.562,0.091l-5.065,1.665
								c-0.617,0.203-0.92,0.651-1.046,0.9c-0.126,0.249-0.307,0.758-0.104,1.375l5.138,15.635c0.31,0.945,1.334,1.459,2.275,1.15
								l5.065-1.665c0,0,0,0,0,0c0.944-0.311,1.459-1.331,1.149-2.275l-5.138-15.634c-0.203-0.617-0.651-0.92-0.899-1.046
								C192.298,127.229,192.011,127.118,191.652,127.118z"/>
							<path style="fill:#FFFFFF;" d="M220.982,148.303c-1.524,0-2.999-0.698-3.964-1.951c-1.294-1.682-1.385-3.997-0.229-5.776
								c3.526-5.422,8.628-14.89,8.932-18.964c0.117-1.566-0.473-3.057-1.539-3.891c-0.83-0.649-1.794-0.797-2.869-0.445
								c-1.803,0.593-2.788,2.542-2.195,4.345c0.862,2.624-0.566,5.449-3.189,6.311c-2.624,0.862-5.45-0.565-6.311-3.189
								c-2.314-7.041,1.532-14.653,8.573-16.967c4.256-1.397,8.684-0.644,12.153,2.068c3.717,2.907,5.717,7.584,5.35,12.51
								c-0.264,3.533-1.994,8.02-3.996,12.163l4.925-1.619c2.621-0.862,5.448,0.565,6.311,3.189
								c0.862,2.624-0.565,5.449-3.189,6.311l-17.203,5.654C222.029,148.222,221.502,148.303,220.982,148.303z"/>
						</g>
					</g>
				</g>
				<g>
					<path style="fill:#FF4D4D;" d="M403.381,341.073l-30.07,129.95c-1.05,4.53-5.09,7.74-9.75,7.74h-184.92
						c-4.66,0-8.7-3.21-9.75-7.74l-30.07-129.95H403.381z"/>
					<polygon style="fill:#FF2C2C;" points="403.381,341.073 138.821,341.073 143.881,362.933 193.191,362.933 153.141,402.983 
						161.011,436.953 235.031,362.933 307.171,362.933 381.191,436.953 389.061,402.983 349.011,362.933 398.321,362.933 					"/>
					<path style="fill:#FF6C6C;" d="M408.859,348.936H133.342c-5.523,0-10-4.477-10-10v-43.331c0-5.523,4.477-10,10-10h275.518
						c5.523,0,10,4.477,10,10v43.331C418.859,344.459,414.382,348.936,408.859,348.936z"/>
					<g>
						<path style="fill:#FFFFFF;" d="M202.261,384.416v51c0,2.77-2.24,5-5,5c-2.76,0-5-2.23-5-5v-51c0-2.76,2.24-5,5-5
							C200.021,379.416,202.261,381.656,202.261,384.416z"/>
						<path style="fill:#FFD9D9;" d="M202.261,384.416v11.29l-10,10v-21.29c0-2.76,2.24-5,5-5
							C200.021,379.416,202.261,381.656,202.261,384.416z"/>
						<path style="fill:#FFFFFF;" d="M234.182,379.42c2.761,0,5,2.238,5,5v51c0,2.762-2.239,5-5,5s-5-2.238-5-5v-51
							C229.182,381.658,231.421,379.42,234.182,379.42"/>
						<path style="fill:#FFFFFF;" d="M271.101,379.42c2.761,0,5,2.238,5,5v51c0,2.762-2.239,5-5,5s-5-2.238-5-5v-51
							C266.101,381.658,268.339,379.42,271.101,379.42"/>
						<path style="fill:#FFFFFF;" d="M308.019,379.42c2.761,0,5,2.238,5,5v51c0,2.762-2.239,5-5,5s-5-2.238-5-5v-51
							C303.019,381.658,305.258,379.42,308.019,379.42"/>
						<path style="fill:#FFFFFF;" d="M349.941,384.416v51c0,2.77-2.24,5-5,5c-2.76,0-5-2.23-5-5v-51c0-2.76,2.24-5,5-5
							C347.701,379.416,349.941,381.656,349.941,384.416z"/>
						<path style="fill:#FFD9D9;" d="M349.941,384.416v21.29l-10-10v-11.29c0-2.76,2.24-5,5-5
							C347.701,379.416,349.941,381.656,349.941,384.416z"/>
					</g>
					<g>
						<path style="fill:#FFAB66;" d="M417.953,431.869L417.953,431.869c-6.087,6.087-15.956,6.087-22.042,0L294.891,330.85
							c-6.087-6.087-6.087-15.956,0-22.042h0c6.087-6.087,15.956-6.087,22.042,0l101.019,101.019
							C424.039,415.914,424.039,425.783,417.953,431.869z"/>
						<path style="fill:#FFAB66;" d="M247.31,308.808L247.31,308.808c-6.087-6.087-15.956-6.087-22.042,0L124.249,409.827
							c-6.087,6.087-6.087,15.956,0,22.042l0,0c6.087,6.087,15.956,6.087,22.042,0L247.31,330.85
							C253.397,324.763,253.397,314.895,247.31,308.808z"/>
					</g>
				</g>
			</g>
			<g>
				<circle style="fill:#FF4D4D;" cx="106.963" cy="87.227" r="34.972"/>
				<path style="fill:#FFFFFF;" d="M106.963,103.972c-2.761,0-5-2.239-5-5V75.482c0-2.761,2.239-5,5-5s5,2.239,5,5v23.489
					C111.963,101.733,109.724,103.972,106.963,103.972z"/>
				<path style="fill:#FFFFFF;" d="M118.708,92.227H95.218c-2.761,0-5-2.239-5-5s2.239-5,5-5h23.489c2.761,0,5,2.239,5,5
					S121.469,92.227,118.708,92.227z"/>
			</g>
			<g>
				<circle style="fill:#FF9D33;" cx="352.222" cy="134.571" r="34.972"/>
				<g>
					<path style="fill:#0000CC;" d="M403.686,252.007c-0.901,2.61,0.485,5.457,3.095,6.358c2.611,0.899,5.457-0.485,6.358-3.095
						l21.822-63.234c0.953-2.761,0.774-5.727-0.504-8.353c-1.278-2.625-3.502-4.596-6.263-5.549l-46.89-16.182
						c6.744-7.159,10.89-16.792,10.89-27.38c0-19.495-14.032-35.765-32.525-39.265l5.549-12.202
						c0.875,1.217,2.057,2.191,3.459,2.829c2.118,0.963,4.482,1.043,6.659,0.228l15.097-5.658v0
						c4.495-1.685,6.781-6.712,5.096-11.206l-11.046-29.473c-0.816-2.176-2.431-3.904-4.547-4.867l-9.236-4.199
						c-2.858-1.301-6.243-0.816-8.621,1.229c-2.905,2.498-7.033,3.086-10.518,1.502c-3.485-1.585-5.754-5.084-5.781-8.915
						c-0.022-3.138-1.882-6.006-4.74-7.305l-9.466-4.305c-1.97-0.895-4.17-0.969-6.193-0.211L295.104,24.1
						c-2.025,0.759-3.633,2.261-4.528,4.23s-0.97,4.168-0.211,6.193l6.085,16.236c0.759,2.025,2.261,3.634,4.229,4.529
						c1.415,0.643,2.946,0.861,4.448,0.655l-7.992,17.573l-49.932-25.23c-2.286-1.155-4.887-1.351-7.319-0.551l-22.51,7.397
						c-3.675,1.208-6.248,4.447-6.555,8.251c-0.844,10.471-7.839,19.356-17.821,22.636c-9.982,3.28-20.885,0.276-27.775-7.651
						c-2.504-2.881-6.499-3.962-10.172-2.753l-9.066,2.979c-3.958-17.903-19.946-31.339-39.022-31.339
						c-22.041,0-39.972,17.931-39.972,39.972s17.931,39.972,39.972,39.972c0.035,0,0.07-0.003,0.106-0.003l-11.731,23.216
						c-2.385,4.72-0.485,10.501,4.235,12.886l35.652,18.015c4.723,2.386,10.501,0.485,12.886-4.235l4.895-9.688l26.904,81.862
						c1.325,4.033,5.087,6.598,9.119,6.597c0.99,0,1.997-0.154,2.987-0.48l102.233-33.599c5.024-1.651,7.768-7.082,6.117-12.106
						l-26.904-81.862l9.688,4.896c4.723,2.385,10.501,0.485,12.886-4.235l12.329-24.399l12.546,5.705
						c-5.415,6.821-8.661,15.437-8.661,24.803c0,13.467,6.701,25.391,16.937,32.636l-39.135,113.398H133.342
						c-8.271,0-15,6.729-15,15v43.331c0,8.271,6.729,15,15,15h3.326l6.841,29.56l-22.795,22.795c-8.026,8.027-8.026,21.087,0,29.114
						c4.013,4.013,9.285,6.02,14.556,6.02c5.272,0,10.543-2.007,14.557-6.02l4.624-4.624l9.573,41.366
						c1.583,6.841,7.592,11.619,14.613,11.619h184.927c7.021,0,13.03-4.777,14.614-11.618l9.573-41.367l4.624,4.624
						c4.013,4.013,9.285,6.02,14.556,6.02c5.272,0,10.543-2.006,14.557-6.02c0,0,0,0,0,0c8.026-8.027,8.026-21.087,0-29.114
						l-22.795-22.795l6.841-29.56h3.326c8.271,0,15-6.729,15-15v-43.331c0-8.271-6.729-15-15-15h-45.777l17.768-51.486
						c1.306-3.785,1.06-7.852-0.693-11.452s-4.803-6.302-8.587-7.608c-3.786-1.307-7.853-1.061-11.453,0.692
						c-3.6,1.752-6.302,4.803-7.608,8.587l-21.144,61.267h-30.734l37.492-108.638c4.387,1.66,9.137,2.575,14.099,2.575
						c7.177,0,13.912-1.911,19.74-5.236l52.969,18.28c0.302,0.104,0.458,0.315,0.535,0.473c0.077,0.158,0.147,0.411,0.042,0.712
						L403.686,252.007z M146.931,353.937h26.136l-21.225,21.225L146.931,353.937z M142.756,428.334
						c-4.128,4.127-10.844,4.128-14.972,0c-4.128-4.127-4.128-10.844,0-14.971l101.02-101.02c2.063-2.064,4.774-3.096,7.486-3.096
						c2.711,0,5.422,1.032,7.485,3.096c4.128,4.127,4.128,10.844,0,14.971L142.756,428.334z M414.417,428.334L414.417,428.334
						c-4.127,4.127-10.843,4.128-14.971,0l-101.02-101.019c-4.127-4.128-4.127-10.844,0-14.972c2-1.999,4.658-3.1,7.485-3.1
						s5.486,1.101,7.485,3.101l101.02,101.02C418.545,417.49,418.545,424.207,414.417,428.334z M390.358,375.161l-21.225-21.225
						h26.136L390.358,375.161z M413.859,295.605v43.331c0,2.757-2.243,5-5,5h-49.726l-38.665-38.665
						c-8.027-8.026-21.087-8.026-29.114,0c-8.026,8.026-8.026,21.086,0,29.113l9.551,9.551h-38.711c-2.761,0-5,2.239-5,5
						s2.239,5,5,5h48.711l68.51,68.509l-10.98,47.447c-0.528,2.281-2.531,3.874-4.872,3.874H178.637
						c-2.34,0-4.343-1.593-4.871-3.873l-10.98-47.447l88.06-88.06c8.026-8.027,8.026-21.087,0-29.114
						c-8.026-8.026-21.086-8.026-29.114,0l-38.665,38.665h-49.726c-2.757,0-5-2.243-5-5v-43.331c0-2.757,2.243-5,5-5h275.518
						C411.616,290.605,413.859,292.849,413.859,295.605z M361.963,222.601c0.435-1.26,1.334-2.275,2.533-2.859
						c1.198-0.583,2.553-0.665,3.813-0.23c1.26,0.435,2.275,1.334,2.859,2.533c0.583,1.199,0.666,2.553,0.23,3.813l-18.894,54.749
						h-10.559L361.963,222.601z M76.991,87.227c0-16.526,13.445-29.972,29.972-29.972s29.972,13.445,29.972,29.972
						s-13.445,29.972-29.972,29.972S76.991,103.753,76.991,87.227z M287.296,123.587l-20.097-10.155
						c-1.805-0.913-3.982-0.647-5.515,0.671c-1.533,1.318-2.121,3.431-1.49,5.352l30.545,92.942l-101.457,33.344L158.738,152.8
						c-0.631-1.921-2.358-3.273-4.375-3.425c-0.126-0.01-0.252-0.014-0.377-0.014c-1.875,0-3.606,1.053-4.461,2.745l-10.154,20.097
						l-34.923-17.646l14.805-29.299c15.561-5.041,26.968-19.379,27.642-36.435l11.019-3.621
						c9.552,10.771,24.509,14.823,38.207,10.319c13.701-4.502,23.337-16.636,24.636-30.973l22.089-7.26l62.096,31.377
						L287.296,123.587z M314.603,85.489c-0.8-2.434-2.5-4.41-4.786-5.566l-3.748-1.894l13.043-28.681
						c0.837-1.841,0.483-4.005-0.897-5.483c-1.38-1.478-3.514-1.976-5.409-1.269l-7.66,2.871l-4.749-12.671l27.755-10.403
						l7.675,3.49c0.505,7.219,4.953,13.688,11.593,16.708c6.641,3.021,14.439,2.122,20.212-2.244l7.675,3.49l10.403,27.755
						l-12.671,4.749l-2.871-7.66c-0.71-1.894-2.491-3.173-4.512-3.242c-2.017-0.068-3.885,1.086-4.722,2.927l-11.996,26.379
						c-7.541,0.617-14.495,3.33-20.276,7.563l-15.784-7.177l1.173-2.321C315.208,90.523,315.403,87.923,314.603,85.489z
						 M322.251,134.571c0-16.526,13.445-29.972,29.972-29.972s29.972,13.445,29.972,29.972s-13.445,29.972-29.972,29.972
						S322.251,151.098,322.251,134.571z"/>
					<path style="fill:#0000CC;" d="M307.661,316.549c-2.761,0-5,2.239-5,5v0.115c0,2.761,2.239,5,5,5s5-2.239,5-5v-0.115
						C312.661,318.788,310.422,316.549,307.661,316.549z"/>
					<path style="fill:#0000CC;" d="M234.54,316.549c-2.761,0-5,2.239-5,5v0.115c0,2.761,2.239,5,5,5s5-2.239,5-5v-0.115
						C239.54,318.788,237.301,316.549,234.54,316.549z"/>
				</g>
				<path style="fill:#FFFFFF;" d="M352.223,151.316c-2.761,0-5-2.239-5-5v-23.489c0-2.761,2.239-5,5-5s5,2.239,5,5v23.489
					C357.223,149.077,354.984,151.316,352.223,151.316z"/>
				<path style="fill:#FFFFFF;" d="M363.967,139.571h-23.489c-2.761,0-5-2.239-5-5s2.239-5,5-5h23.489c2.761,0,5,2.239,5,5
					S366.729,139.571,363.967,139.571z"/>
			</g>
		</g>
		<path style="fill:#FF9D33;" d="M130.727,231.727c-1.28,0-2.559-0.488-3.536-1.464c-1.953-1.953-1.953-5.119,0-7.071l10-10
			c1.953-1.952,5.118-1.952,7.071,0c1.953,1.953,1.953,5.119,0,7.071l-10,10C133.286,231.238,132.007,231.727,130.727,231.727z"/>
		<path style="fill:#FF6C6C;" d="M430.009,392.413c-1.28,0-2.559-0.488-3.536-1.464c-1.953-1.953-1.953-5.119,0-7.071l10-10
			c1.953-1.952,5.118-1.952,7.071,0c1.953,1.953,1.953,5.119,0,7.071l-10,10C432.568,391.924,431.289,392.413,430.009,392.413z"/>
		<g>
			<path style="fill:#6C6CFF;" d="M258.105,27.237c-1.28,0-2.559-0.488-3.536-1.464l-6.464-6.464l-6.464,6.464
				c-1.953,1.952-5.118,1.952-7.071,0c-1.953-1.953-1.953-5.119,0-7.071l10-10c1.953-1.952,5.118-1.952,7.071,0l10,10
				c1.953,1.953,1.953,5.119,0,7.071C260.665,26.749,259.385,27.237,258.105,27.237z"/>
		</g>
		<g>
			<path style="fill:#FF6C6C;" d="M435.009,153.199c-1.28,0-2.559-0.488-3.536-1.464l-6.464-6.464l-6.464,6.464
				c-1.953,1.952-5.118,1.952-7.071,0c-1.953-1.953-1.953-5.119,0-7.071l10-10c1.953-1.952,5.118-1.952,7.071,0l10,10
				c1.953,1.953,1.953,5.119,0,7.071C437.568,152.71,436.289,153.199,435.009,153.199z"/>
		</g>
		<g>
			<path style="fill:#FF6C6C;" d="M104.928,374.051c-1.28,0-2.559-0.488-3.536-1.464l-6.464-6.464l-5.884,5.884
				c-1.953,1.952-5.118,1.952-7.071,0c-1.953-1.953-1.953-5.119,0-7.071l9.419-9.419c1.953-1.952,5.118-1.952,7.071,0l10,10
				c1.953,1.953,1.953,5.119,0,7.071C107.487,373.563,106.208,374.051,104.928,374.051z"/>
		</g>
	</g>
</g>
<g>
</g>
<g>
</g>
<g>
</g>
<g>
</g>
<g>
</g>
<g>
</g>
<g>
</g>
<g>
</g>
<g>
</g>
<g>
</g>
<g>
</g>
<g>
</g>
<g>
</g>
<g>
</g>
<g>
</g>
</svg>
