<svg height="510pt" viewBox="0 -12 510.20441 510" width="510pt" xmlns="http://www.w3.org/2000/svg"><path d="m486.402344 153.621094c0 65.980468-53.488282 119.464844-119.46875 119.464844-65.980469 0-119.464844-53.484376-119.464844-119.464844 0-65.980469 53.484375-119.46875 119.464844-119.46875 65.980468 0 119.46875 53.488281 119.46875 119.46875zm0 0" fill="#bdc3c7"/><path d="m464.042969 191.421875c7.054687-24.707031 7.054687-50.894531 0-75.605469l13.058593-7.847656c-8.578124-20.761719-22.835937-38.683594-41.132812-51.714844-17.21875-12.3125-37.445312-19.742187-58.539062-21.503906-1.707032-.167969-3.496094-.339844-5.203126-.425781-1.792968-.085938-3.5-.171875-5.292968-.171875-1.792969 0-3.496094.085937-5.289063.171875-1.707031.085937-3.5.257812-5.207031.425781-44.285156 3.886719-82.71875 32.121094-99.667969 73.21875l13.054688 7.847656c-7.054688 24.710938-7.054688 50.898438 0 75.605469l-13.226563 7.9375c3.320313 8.152344 7.589844 15.886719 12.714844 23.039063l10.324219-6.144532c12.671875 25.210938 34.878906 44.316406 61.699219 53.078125v1.023438c6.675781 1.460937 13.476562 2.320312 20.308593 2.5625 1.792969.085937 3.496094.167969 5.289063.167969 1.792968 0 3.5-.082032 5.292968-.167969 6.832032-.242188 13.628907-1.101563 20.308594-2.5625v-1.023438c26.816406-8.761719 49.027344-27.867187 61.695313-53.078125l10.324219 6.144532c5.128906-7.152344 9.394531-14.886719 12.714843-23.039063zm-194.472657-106.410156c17.152344-24.257813 42.746094-41.242188 71.765626-47.613281v.511718c-26.839844 8.769532-49.054688 27.914063-61.699219 53.160156zm122.964844-47.613281c29.019532 6.371093 54.613282 23.355468 71.765625 47.613281l-10.070312 6.058593c-12.644531-25.246093-34.859375-44.390624-61.695313-53.160156zm0 0" fill="#cfd8dc"/><path d="m469.335938 153.621094c0-65.980469-45.847657-119.46875-102.402344-119.46875-56.554688 0-102.398438 53.488281-102.398438 119.46875 0 65.980468 45.84375 119.464844 102.398438 119.464844 56.554687 0 102.402344-53.484376 102.402344-119.464844zm0 0" fill="#f5f5f5"/><path d="m443.734375 401.597656c-85.332031 25.601563-93.867187 17.070313-136.535156 51.203125-40.105469 32.082031-95.230469 3.925781-87.550781-35.074219v-.085937c.488281-2.570313 1.230468-5.085937 2.21875-7.507813l279.382812-79.1875c.039062.027344.0625.074219.0625.125 0 .050782-.023438.097657-.0625.128907 2.386719 22.273437-4.523438 54.527343-57.515625 70.398437zm0 0" fill="#cfd8dc"/><path d="m501.25 330.945312c.039062.027344.0625.074219.0625.125 0 .050782-.023438.097657-.0625.128907-2.21875 20.140625-15.191406 43.265625-57.515625 55.980469-85.332031 25.597656-93.867187 17.066406-136.535156 51.199218-34.898438 27.902344-81.234375 10.152344-87.550781-20.652344v-.085937c.488281-2.570313 1.230468-5.085937 2.21875-7.507813zm0 0" fill="#f5f5f5"/><path d="m500.90625 337.941406c0 .085938.085938.085938 0 .171875-.65625 4.617188-2.742188 8.917969-5.972656 12.285157-8.53125 8.535156-76.800782 42.667968-128 42.667968-51.199219 0-51.199219 34.132813-85.332032 34.132813-21.078124-.253907-41.703124-6.148438-59.734374-17.066407-5.277344-10.828124-8.871094-22.394531-10.667969-34.304687-.871094-5.71875-.132813-11.570313 2.136719-16.894531l59.730468-59.734375c34.132813-8.53125 25.601563 25.601562 76.800782 17.066406 51.199218-8.53125 85.332031 8.535156 102.402343 8.535156 17.066407 0 34.132813-17.066406 42.664063-8.535156 5.292968 5.882813 7.503906 13.914063 5.972656 21.675781zm0 0" fill="#3b97d3"/><path d="m500.90625 337.941406c0 .085938.085938.085938 0 .171875-.65625 4.617188-2.742188 8.917969-5.972656 12.285157-5.632813 5.632812-36.863282 22.1875-72.105469 32.941406 0 .082031-.085937.082031-.171875.082031-18.019531 5.855469-36.78125 9.101563-55.722656 9.644531-51.199219 0-51.199219 34.132813-85.332032 34.132813-21.078124-.253907-41.703124-6.148438-59.734374-17.066407-5.277344-10.828124-8.871094-22.394531-10.667969-34.304687-.898438-5.886719-.160157-11.910156 2.136719-17.40625l59.730468-49.835937c7.605469-2.605469 15.960938-1.832032 22.957032 2.132812 11.773437 6.742188 18.941406 20.738281 53.84375 14.933594 51.199218-8.53125 85.332031 8.535156 102.402343 8.535156 8.902344-.945312 17.539063-3.609375 25.425781-7.851562 7.085938-2.988282 13.144532-4.777344 17.238282-.683594 3.230468 3.371094 5.316406 7.667968 5.972656 12.289062zm0 0" fill="#0377bc"/><path d="m477.867188 327.53125c0 .085938.085937.085938 0 .253906-.527344 6.5-2.574219 12.785156-5.972657 18.347656-14.257812 14.949219-30.824219 27.511719-49.066406 37.207032 0 .082031-.085937.082031-.171875.082031-18.019531 5.855469-36.78125 9.101563-55.722656 9.644531-51.199219 0-51.199219 34.132813-85.332032 34.132813-21.078124-.253907-41.703124-6.148438-59.734374-17.066407-5.277344-10.828124-8.871094-22.394531-10.667969-34.304687-.898438-5.886719-.160157-11.910156 2.136719-17.40625l59.730468-49.835937c7.605469-2.605469 15.960938-1.832032 22.957032 2.132812 11.773437 6.742188 18.941406 20.738281 53.84375 14.933594 51.199218-8.53125 85.332031 8.535156 102.402343 8.535156 8.902344-.945312 17.539063-3.609375 25.425781-7.851562.085938.339843.085938.765624.171876 1.195312zm0 0" fill="#02a9f4"/><path d="m128 179.222656-8.53125 5.542969-17.066406 11.007813-68.183594-23.378907c-5.242188-11.066406-8.175781-23.089843-8.617188-35.328125 0-25.601562-17.066406-22.699218-17.066406-22.699218v-105.300782s59.734375-8.535156 85.332032 42.667969c10.324218 20.613281 21.691406 40.691406 34.046874 60.160156zm0 0" fill="#dfc49c"/><path d="m119.46875 184.765625-17.066406 11.007813-68.183594-23.378907c-5.242188-11.066406-8.175781-23.089843-8.617188-35.328125 0-25.601562-17.066406-22.699218-17.066406-22.699218v-86.613282c17.40625-.253906 57.171875 3.925782 76.800782 43.179688 10.324218 20.613281 21.6875 40.695312 34.046874 60.160156zm0 0" fill="#ffe0b2"/><path d="m264.535156 153.621094c-.015625 12.785156 1.765625 25.511718 5.289063 37.800781l-13.226563 7.9375c-2.910156-7-5.167968-14.257813-6.742187-21.675781-.765625-3.839844-1.363281-7.765625-1.789063-11.691406-.414062-3.9375-.613281-7.898438-.597656-11.859376-.003906-7.183593.65625-14.355468 1.960938-21.417968.34375-2.046875.769531-4.097656 1.28125-6.058594.9375-4.011719 2.046874-7.851562 3.328124-11.691406.25-.519532.449219-1.0625.597657-1.621094.683593-1.792969 1.363281-3.585938 2.132812-5.375l13.054688 7.847656c-3.523438 12.292969-5.304688 25.019532-5.289063 37.804688zm0 0" fill="#2c3e50"/><path d="m249.855469 177.683594c1.574219 7.417968 3.832031 14.675781 6.742187 21.675781l-.171875.085937c-2.917969-7.011718-5.121093-14.304687-6.570312-21.761718zm0 0" fill="#35495e"/><path d="m290.132812 132.882812v41.472657c0 3.074219-2.558593 5.804687-6.96875 7.339843l-26.878906 9.726563c-11.757812-23.828125-11.757812-51.773437 0-75.605469l27.023438 9.730469c4.265625 1.535156 6.824218 4.265625 6.824218 7.335937zm0 0" fill="#607d8b"/><path d="m486.402344 154.132812c.015625 3.960938-.183594 7.921876-.597656 11.859376-.425782 3.925781-1.023438 7.851562-1.792969 11.691406-1.574219 7.417968-3.832031 14.675781-6.742188 21.675781l-13.226562-7.9375c7.054687-24.707031 7.054687-50.894531 0-75.605469l13.058593-7.847656c1.773438 4.195312 3.28125 8.5 4.519532 12.882812.597656 1.878907 1.109375 3.925782 1.539062 5.890626.511719 1.960937.9375 3.925781 1.277344 5.972656.511719 2.730468.941406 5.460937 1.195312 8.277344l.257813 2.304687c.167969 1.535156.253906 3.15625.339844 4.691406.085937 2.046875.171875 4.097657.171875 6.144531zm0 0" fill="#37474f"/><path d="m464.042969 115.816406c7.054687 24.710938 7.054687 50.898438 0 75.605469l-16.128907-9.726563c-2.617187-1.507812-4.21875-4.316406-4.179687-7.339843v-41.472657c-.035156-3 1.523437-5.792968 4.097656-7.335937zm0 0" fill="#607d8b"/><path d="m477.269531 199.359375c2.910157-7 5.167969-14.257813 6.742188-21.675781-1.449219 7.457031-3.652344 14.75-6.570313 21.761718zm0 0" fill="#35495e"/><path d="m409.601562 132.882812v41.472657c.039063 3.023437-1.5625 5.832031-4.183593 7.339843l-34.132813 20.480469c-2.671875 1.621094-6.027344 1.621094-8.703125 0l-34.132812-20.480469c-2.621094-1.507812-4.21875-4.316406-4.179688-7.339843v-41.472657c-.039062-3.019531 1.558594-5.828124 4.179688-7.335937l34.132812-20.480469c2.675781-1.621094 6.03125-1.621094 8.703125 0l34.132813 20.480469c2.621093 1.507813 4.222656 4.316406 4.183593 7.335937zm0 0" fill="#607d8b"/><path d="m464.300781 85.011719-10.070312 6.058593c-12.644531-25.246093-34.859375-44.390624-61.695313-53.160156v-.511718c29.019532 6.371093 54.613282 23.355468 71.765625 47.613281zm0 0" fill="#37474f"/><path d="m454.230469 91.070312-14.675781 8.703126c-2.675782 1.625-6.03125 1.625-8.707032 0l-34.132812-20.476563c-2.617188-1.511719-4.21875-4.316406-4.179688-7.339844v-34.046875c26.835938 8.769532 49.050782 27.914063 61.695313 53.160156zm0 0" fill="#607d8b"/><path d="m341.335938 37.398438v.511718c-26.839844 8.769532-49.054688 27.914063-61.699219 53.160156l-10.066407-6.058593c17.152344-24.257813 42.746094-41.242188 71.765626-47.613281zm0 0" fill="#2c3e50"/><path d="m341.335938 37.910156v34.046875c.035156 3.023438-1.5625 5.828125-4.183594 7.339844l-34.132813 20.476563c-2.675781 1.625-6.027343 1.625-8.703125 0l-14.679687-8.703126c12.644531-25.246093 34.859375-44.390624 61.699219-53.160156zm0 0" fill="#607d8b"/><path d="m464.554688 222.398438c-17.175782 24.417968-42.867188 41.527343-72.019532 47.957031v-1.023438c26.816406-8.761719 49.027344-27.867187 61.695313-53.078125zm0 0" fill="#37474f"/><path d="m464.8125 222.570312c-17.191406 24.582032-42.988281 41.820313-72.277344 48.296876v-.511719c29.152344-6.429688 54.84375-23.539063 72.019532-47.957031zm0 0" fill="#35495e"/><path d="m392.535156 269.332031v-34.046875c-.039062-3.023437 1.5625-5.832031 4.179688-7.339844l34.132812-20.480468c2.675782-1.621094 6.03125-1.621094 8.707032 0l14.675781 8.789062c-12.667969 25.210938-34.878907 44.316406-61.695313 53.078125zm0 0" fill="#607d8b"/><path d="m341.335938 269.332031v1.023438c-29.15625-6.429688-54.847657-23.539063-72.023438-47.957031l10.324219-6.144532c12.671875 25.210938 34.878906 44.316406 61.699219 53.078125zm0 0" fill="#2c3e50"/><path d="m341.335938 235.285156v34.046875c-26.820313-8.761719-49.027344-27.867187-61.699219-53.078125l19.03125-11.433594 38.484375 23.125c2.621094 1.507813 4.21875 4.316407 4.183594 7.339844zm0 0" fill="#607d8b"/><path d="m341.335938 270.355469v.511719c-29.292969-6.476563-55.085938-23.714844-72.277344-48.296876l.253906-.171874c17.175781 24.417968 42.867188 41.527343 72.023438 47.957031zm0 0" fill="#35495e"/><path d="m277.304688 341.097656c-2 3.203125-4.375 6.15625-7.082032 8.789063-25.601562 25.601562-59.734375 8.535156-59.734375 8.535156-25.597656-59.734375-76.800781-76.800781-128-102.402344-27.753906-15.117187-48.132812-40.917969-56.402343-71.421875l-.515626-1.792968c-.769531-2.605469-.230468-5.421876 1.449219-7.558594 1.675781-2.136719 4.285157-3.328125 7-3.195313 20.550781.5625 40.671875-5.945312 57.003907-18.429687 2.644531-1.964844 5.035156-3.839844 7.253906-5.804688 8.21875-6.417968 15.363281-14.109375 21.160156-22.78125 3.085938-4.125 5.054688-8.972656 5.71875-14.082031 26.5625 21.945313 49.589844 47.847656 68.265625 76.800781 25.601563 42.667969 76.800781 119.46875 76.800781 119.46875 5.445313 3.542969 9.25 9.105469 10.582032 15.464844 1.328124 6.359375.070312 12.984375-3.5 18.410156zm0 0" fill="#ef314c"/><path d="m277.484375 341.609375c-2.058594-5.84375-5.875-10.914063-10.921875-14.507813 0 0-53.761719-80.636718-80.640625-125.4375-18.273437-28.46875-40.613281-54.113281-66.304687-76.117187 3.085937-4.125 5.054687-8.972656 5.71875-14.082031 26.5625 21.945312 49.585937 47.847656 68.265624 76.800781 25.597657 42.667969 76.800782 119.46875 76.800782 119.46875 5.441406 3.542969 9.25 9.109375 10.578125 15.464844 1.332031 6.359375.070312 12.984375-3.496094 18.410156zm0 0" fill="#bb193b"/><path d="m127.925781 120.445312c-2.925781.003907-5.652343-1.496093-7.214843-3.96875-12.527344-19.703124-24.035157-40.03125-34.476563-60.914062-22.464844-44.921875-74.324219-38.328125-76.515625-38.027344-4.621094.574219-8.847656-2.664062-9.5-7.273437-.648438-4.609375 2.511719-8.890625 7.109375-9.621094.667969-.101563 66.140625-8.761719 94.175781 47.296875 10.183594 20.367188 21.40625 40.195312 33.625 59.410156 1.664063 2.628906 1.765625 5.949219.265625 8.675782-1.496093 2.722656-4.355469 4.417968-7.464843 4.421874zm0 0"/><path d="m34.226562 180.953125c-3.371093.003906-6.425781-1.980469-7.800781-5.058594-5.792969-12.140625-8.980469-25.359375-9.359375-38.808593.574219-4.664063-.71875-9.371094-3.597656-13.085938-.988281-.804688-2.226562-1.230469-3.5-1.199219-4.644531.789063-9.054688-2.332031-9.847656-6.980469-.789063-4.644531 2.335937-9.054687 6.980468-9.84375 6.234376-.847656 12.539063.957032 17.375 4.980469 6.976563 6.820313 10.519532 16.414063 9.65625 26.128907.46875 11.039062 3.148438 21.867187 7.878907 31.851562 1.171875 2.640625.933593 5.691406-.636719 8.117188-1.570312 2.425781-4.261719 3.890624-7.148438 3.898437zm0 0"/><path d="m238.96875 373.132812c-10.171875-.0625-20.210938-2.292968-29.453125-6.546874-1.804687-.898438-3.230469-2.414063-4.023437-4.269532-20.890626-48.746094-59.050782-66.964844-103.234376-88.0625-6.875-3.285156-13.808593-6.597656-20.742187-10.0625-39.4375-19.726562-55.355469-57.664062-61.332031-78.527344-1.496094-5.234374-.398438-10.867187 2.949218-15.15625 3.332032-4.320312 8.558594-6.746093 14.007813-6.503906 18.613281.574219 36.851563-5.316406 51.605469-16.675781 29.117187-21.84375 30.722656-36.074219 30.726562-36.214844.28125-3.183593 2.257813-5.964843 5.167969-7.28125 2.855469-1.300781 6.199219-.921875 8.691406.992188 27.386719 22.542969 51.089844 49.21875 70.25 79.070312 23.433594 39.0625 69.066407 107.828125 75.757813 117.890625 7.417968 5.65625 12.273437 14.042969 13.492187 23.292969.503907 12.019531-4.5625 23.59375-13.730469 31.378906-10.53125 10.820313-25.039062 16.84375-40.132812 16.675781zm-19.175781-20.683593c15.945312 6.960937 34.503906 3.796875 47.242187-8.058594 5.367188-4.265625 8.589844-10.671875 8.824219-17.523437-.863281-4.851563-3.585937-9.175782-7.582031-12.054688-.90625-.625-1.6875-1.414062-2.308594-2.324219-.519531-.765625-51.609375-77.457031-77.015625-119.808593-15.8125-24.730469-35.003906-47.128907-57.019531-66.542969-8.359375 13.839843-19.59375 25.722656-32.945313 34.84375-17.925781 13.613281-39.964843 20.699219-62.464843 20.082031 5.265624 18.066406 19.015624 51.058594 52.625 67.859375 6.839843 3.417969 13.683593 6.6875 20.464843 9.925781 44.445313 21.226563 86.484375 41.296875 110.179688 93.601563zm0 0"/><path d="m281.601562 435.753906c-22.765624-.234375-45.042968-6.628906-64.46875-18.5-1.234374-.824218-2.234374-1.957031-2.898437-3.28125-1.945313-3.886718-18.683594-38.539062-8.535156-58.835937 1.363281-2.726563 4.078125-4.519531 7.121093-4.703125 3.046876-.179688 5.953126 1.273437 7.632813 3.820312 1.679687 2.542969 1.875 5.789063.511719 8.515625-4.671875 9.347657 2.5 30.585938 7.5 41.414063 16.214844 9.214844 34.488281 14.199218 53.136718 14.503906 10.527344-.367188 20.484376-4.882812 27.691407-12.566406 15.589843-14.550782 36.328125-22.3125 57.640625-21.566406 48.933594 0 115.050781-33.253907 121.96875-40.167969 5.160156-6.449219 5.160156-15.617188 0-22.066407-3.988282.847657-7.847656 2.214844-11.476563 4.070313-7.808593 4.046875-16.378906 6.417969-25.15625 6.964844-7.589843-.460938-15.109375-1.734375-22.425781-3.800781-25.550781-7.167969-52.335938-8.820313-78.574219-4.851563-31.308593 5.199219-44.070312-4.566406-53.394531-11.699219-5.816406-6.179687-14.738281-8.339844-22.742188-5.503906-4.527343 1.03125-9.046874-1.75-10.171874-6.253906s1.558593-9.082032 6.039062-10.300782c13.039062-4.132812 27.292969-.875 37.242188 8.507813 8.351562 6.382813 16.226562 12.410156 40.226562 8.421875 28.460938-4.339844 57.515625-2.613281 85.265625 5.066406 6.058594 1.695313 12.265625 2.816406 18.535156 3.347656 6.398438-.648437 12.609375-2.527343 18.296875-5.53125 9.566406-4.191406 21.476563-9.429687 30.402344-.503906 11.875 13.109375 11.875 33.089844 0 46.199219-10.917969 10.917969-82.042969 45.167969-134.035156 45.167969-17.386719-.777344-34.328125 5.632812-46.847656 17.722656-10.21875 10.246094-24.015626 16.128906-38.484376 16.410156zm0 0"/><path d="m366.933594 282.152344c-70.691406 0-128-57.304688-128-128 0-70.691406 57.308594-128 128-128s128 57.308594 128 128c-.078125 70.660156-57.339844 127.921875-128 128zm0-238.929688c-61.265625 0-110.933594 49.664063-110.933594 110.929688 0 61.269531 49.667969 110.933594 110.933594 110.933594s110.933594-49.664063 110.933594-110.933594c-.070313-61.238282-49.695313-110.863282-110.933594-110.929688zm0 0"/><path d="m268.886719 475.269531c-13.75.078125-27.171875-4.203125-38.34375-12.21875-18.144531-12.375-25.085938-35.804687-16.597657-56.066406 1.75-4.375 6.71875-6.503906 11.09375-4.753906 4.378907 1.753906 6.507813 6.71875 4.753907 11.097656-5.519531 13.066406-.925781 28.214844 10.925781 36.015625 18.742188 12.9375 43.847656 11.628906 61.148438-3.183594 30.941406-24.753906 45.132812-28.21875 79.414062-36.59375 15.070312-3.679687 33.820312-8.265625 60.003906-16.117187 37.449219-11.242188 54.773438-31.945313 51.480469-61.539063-.519531-4.683594 2.859375-8.902344 7.542969-9.425781 4.683594-.519531 8.90625 2.859375 9.425781 7.542969 2.433594 21.9375-2.574219 61.46875-63.550781 79.769531-26.601563 7.980469-45.59375 12.617187-60.851563 16.347656-32.605469 7.964844-44.804687 10.945313-72.796875 33.339844-12.300781 10.125-27.71875 15.703125-43.648437 15.785156zm0 0"/><path d="m366.933594 211.941406c-3.09375 0-6.128906-.84375-8.78125-2.4375l-34.132813-20.480468c-5.125-3.101563-8.265625-8.644532-8.285156-14.636719v-41.53125c.015625-5.988281 3.15625-11.53125 8.277344-14.628907l34.140625-20.488281c5.40625-3.25 12.164062-3.25 17.566406 0l34.136719 20.480469c5.121093 3.097656 8.261719 8.644531 8.277343 14.636719v41.53125c-.015624 5.988281-3.152343 11.53125-8.277343 14.628906l-34.140625 20.488281c-2.652344 1.59375-5.6875 2.4375-8.78125 2.4375zm0-99.570312-34.132813 20.480468v41.535157l34.132813 20.480469 34.132812-20.480469v-41.53125zm0 0"/><path d="m435.210938 109.542969c-3.09375 0-6.125-.839844-8.777344-2.429688l-34.148438-20.488281c-5.125-3.101562-8.265625-8.648438-8.285156-14.636719v-34.589843c0-4.714844 3.820312-8.535157 8.535156-8.535157 4.710938 0 8.53125 3.820313 8.53125 8.535157v34.589843l34.144532 20.488281 24.707031-14.789062c4.046875-2.417969 9.289062-1.101562 11.707031 2.941406 2.421875 4.046875 1.105469 9.289063-2.941406 11.710938l-24.714844 14.78125c-2.648438 1.585937-5.675781 2.421875-8.757812 2.421875zm0 0"/><path d="m298.660156 109.542969c-3.085937 0-6.113281-.839844-8.757812-2.425781l-24.71875-14.78125c-4.042969-2.417969-5.363282-7.660157-2.941406-11.707032 2.421874-4.042968 7.664062-5.363281 11.707031-2.941406l24.71875 14.785156 34.132812-20.480468v-34.59375c0-4.714844 3.820313-8.535157 8.535157-8.535157 4.710937 0 8.53125 3.820313 8.53125 8.535157v34.589843c-.015626 5.988281-3.152344 11.53125-8.277344 14.628907l-34.148438 20.492187c-2.652344 1.589844-5.6875 2.433594-8.78125 2.433594zm0 0"/><path d="m392.535156 279.402344c-4.714844 0-8.535156-3.820313-8.535156-8.535156v-35.613282c.019531-5.988281 3.15625-11.53125 8.277344-14.628906l34.144531-20.488281c5.398437-3.242188 12.144531-3.25 17.546875-.015625l25.234375 15.132812c4.039063 2.429688 5.34375 7.667969 2.917969 11.707032-2.421875 4.035156-7.660156 5.347656-11.699219 2.925781l-25.222656-15.121094-34.132813 20.480469v35.621094c0 4.714843-3.820312 8.535156-8.53125 8.535156zm0 0"/><path d="m341.335938 279.402344c-4.714844 0-8.535157-3.820313-8.535157-8.535156v-35.613282l-34.132812-20.480468-25.21875 15.121093c-4.042969 2.425781-9.285157 1.113281-11.710938-2.929687-2.425781-4.042969-1.113281-9.285156 2.929688-11.710938l29.609375-17.75c2.703125-1.621094 6.082031-1.617187 8.785156.003906l38.523438 23.113282c5.125 3.101562 8.261718 8.644531 8.28125 14.632812v35.613282c0 4.714843-3.820313 8.535156-8.53125 8.535156zm0 0"/><path d="m477.433594 207.976562c-1.542969 0-3.058594-.417968-4.382813-1.214843l-29.566406-17.738281c-5.125-3.101563-8.265625-8.644532-8.285156-14.636719v-41.535157c.015625-5.988281 3.15625-11.535156 8.277343-14.636718l29.234376-17.558594c2.617187-1.679688 5.9375-1.800781 8.671874-.320312 2.734376 1.480468 4.445313 4.328124 4.46875 7.4375.023438 3.109374-1.644531 5.984374-4.355468 7.503906l-29.238282 17.566406.011719 41.542969 29.566407 17.742187c3.289062 1.976563 4.855468 5.902344 3.828124 9.597656-1.027343 3.699219-4.394531 6.257813-8.230468 6.253907zm0 0"/><path d="m256.433594 207.976562c-3.835938.003907-7.203125-2.550781-8.230469-6.25-1.023437-3.695312.542969-7.625 3.832031-9.597656l29.566406-17.738281v-41.539063l-29.226562-17.574218c-2.710938-1.519532-4.378906-4.394532-4.355469-7.503906.023438-3.109376 1.734375-5.957032 4.46875-7.4375 2.734375-1.480469 6.054688-1.359376 8.671875.320312l29.230469 17.566406c5.125 3.09375 8.261719 8.640625 8.277344 14.628906v41.535157c-.015625 5.988281-3.15625 11.53125-8.277344 14.628906l-29.574219 17.75c-1.324218.792969-2.839844 1.214844-4.382812 1.210937zm0 0"/><path d="m486.410156 409.621094c-3.234375.003906-6.195312-1.824219-7.640625-4.714844l-8.109375-16.214844c-1.363281-2.726562-1.167968-5.976562.511719-8.519531s4.589844-4 7.632813-3.816406c3.042968.183593 5.757812 1.972656 7.121093 4.703125l8.109375 16.210937c1.320313 2.644531 1.179688 5.785157-.371094 8.300781-1.554687 2.515626-4.296874 4.046876-7.253906 4.050782zm0 0"/><path d="m452.277344 426.6875c-3.242188.003906-6.207032-1.828125-7.652344-4.734375l-8.277344-16.640625c-1.355468-2.730469-1.15625-5.976562.53125-8.515625 1.683594-2.542969 4.597656-3.988281 7.640625-3.800781 3.042969.191406 5.753907 1.988281 7.113281 4.71875l8.277344 16.640625c1.3125 2.644531 1.167969 5.777343-.386718 8.289062-1.550782 2.511719-4.292969 4.039063-7.246094 4.042969zm0 0"/><path d="m332.808594 460.820312c-3.234375.003907-6.195313-1.824218-7.640625-4.714843l-6.65625-13.3125c-2.109375-4.214844-.398438-9.34375 3.816406-11.449219 4.214844-2.109375 9.34375-.398438 11.449219 3.816406l6.65625 13.3125c1.324218 2.644532 1.183594 5.78125-.371094 8.296875-1.550781 2.515625-4.296875 4.046875-7.253906 4.050781zm0 0"/><path d="m290.144531 486.421875c-3.238281.003906-6.199219-1.824219-7.644531-4.722656l-6.570312-13.140625c-1.414063-2.734375-1.246094-6.015625.441406-8.589844 1.683594-2.574219 4.625-4.042969 7.695312-3.84375 3.070313.199219 5.796875 2.039062 7.132813 4.808594l6.570312 13.140625c1.320313 2.644531 1.175781 5.785156-.375 8.296875-1.554687 2.515625-4.296875 4.046875-7.25 4.050781zm0 0"/><path d="m247.476562 486.421875c-3.230468 0-6.183593-1.820313-7.632812-4.707031l-10.328125-20.5625c-2.035156-4.199219-.320313-9.257813 3.851563-11.351563 4.167968-2.09375 9.246093-.449219 11.398437 3.691407l10.328125 20.566406c1.328125 2.644531 1.191406 5.785156-.363281 8.304687-1.550781 2.519531-4.296875 4.054688-7.253907 4.058594zm0 0"/><path d="m332.792969 349.886719c-2.957031 0-5.699219-1.535157-7.253907-4.050781-1.554687-2.515626-1.695312-5.65625-.371093-8.300782 4.515625-9.015625 2.683593-13.847656 1.683593-15.503906-2.429687-4.042969-1.121093-9.285156 2.921876-11.714844 4.039062-2.425781 9.285156-1.117187 11.710937 2.921875 5.386719 10.070313 4.984375 22.246094-1.050781 31.933594-1.449219 2.894531-4.40625 4.71875-7.640625 4.714844zm0 0"/><path d="m358.390625 349.886719c-2.953125 0-5.699219-1.535157-7.25-4.050781-1.554687-2.515626-1.695313-5.65625-.371094-8.300782 5.441407-10.878906 1.523438-15.796875 1.355469-16.003906-2.949219-3.53125-2.652344-8.742188.675781-11.917969 3.269531-3.117187 8.425781-3.070312 11.632813.109375 4.785156 4.777344 10.507812 17.632813 1.601562 35.449219-1.449218 2.894531-4.40625 4.71875-7.644531 4.714844zm0 0"/><path d="m383.992188 349.886719c-2.957032 0-5.699219-1.535157-7.253907-4.050781-1.550781-2.515626-1.691406-5.65625-.371093-8.300782 5.441406-10.878906 1.527343-15.796875 1.359374-16.003906-2.949218-3.53125-2.65625-8.742188.675782-11.917969 3.265625-3.117187 8.421875-3.070312 11.632812.109375 4.78125 4.777344 10.507813 17.632813 1.597656 35.449219-1.445312 2.894531-4.40625 4.71875-7.640624 4.714844zm0 0"/></svg>