<?xml version="1.0" encoding="iso-8859-1"?>
<!-- Generator: Adobe Illustrator 19.0.0, SVG Export Plug-In . SVG Version: 6.00 Build 0)  -->
<svg version="1.1" id="Layer_1" xmlns="http://www.w3.org/2000/svg" xmlns:xlink="http://www.w3.org/1999/xlink" x="0px" y="0px"
	 viewBox="0 0 511.999 511.999" style="enable-background:new 0 0 511.999 511.999;" xml:space="preserve">
<path style="fill:#D80027;" d="M387.814,10.483c0.426-2.611-0.317-5.277-2.029-7.294C384.073,1.171,381.559,0,378.914,0h-37.148
	c-4.624,0-8.481,3.486-8.959,8.086c-4.042,38.849-36.887,69.138-76.806,69.138s-72.764-30.289-76.806-69.138
	C178.717,3.495,174.85,0,170.234,0h-37.148c-2.648,0-5.162,1.163-6.875,3.182c-1.713,2.019-2.451,4.688-2.025,7.301
	c11.472,70.282-13.565,134.571-59.071,155.182c-3.226,1.461-5.302,4.679-5.302,8.22V502.98c0,4.981,4.037,9.018,9.018,9.018h374.336
	c4.981,0,9.018-4.037,9.018-9.018V173.884c0-3.542-2.076-6.759-5.302-8.22C401.38,145.054,376.342,80.765,387.814,10.483z"/>
<path style="fill:#A5001E;" d="M446.886,165.664c-45.506-20.61-70.544-84.899-59.071-155.182c0.426-2.611-0.317-5.277-2.029-7.294
	C384.073,1.172,381.559,0,378.914,0h-37.148c-4.624,0-8.481,3.486-8.959,8.086c-4.043,38.849-36.887,69.138-76.807,69.138v434.775
	h187.168c4.981,0,9.018-4.037,9.018-9.018V173.884C452.187,170.342,450.111,167.126,446.886,165.664z"/>
<g>
	<path style="fill:#FFFFFF;" d="M174.94,279.841v-41.915c0-27.206,16.924-37.329,38.751-37.329s38.91,10.123,38.91,37.329v41.915
		c0,27.205-17.082,37.328-38.91,37.328S174.94,307.046,174.94,279.841z M227.927,237.926c0-10.913-5.378-15.818-14.236-15.818
		c-8.858,0-14.076,4.903-14.076,15.818v41.915c0,10.913,5.22,15.818,14.076,15.818c8.857,0,14.236-4.903,14.236-15.818
		L227.927,237.926L227.927,237.926z"/>
	<path style="fill:#FFFFFF;" d="M314.285,281.423v-3.005c0-10.598-6.484-12.654-15.184-12.654c-5.378,0-7.118-4.745-7.118-9.49
		c0-4.745,1.74-9.49,7.118-9.49c6.01,0,12.338-0.791,12.338-13.602c0-9.175-5.22-11.389-11.704-11.389
		c-7.75,0-11.705,1.898-11.705,8.067c0,5.377-2.372,9.015-11.547,9.015c-11.387,0-12.811-2.372-12.811-9.965
		c0-12.338,8.857-28.312,36.063-28.312c20.087,0,35.271,7.275,35.271,28.629c0,11.547-4.269,22.302-12.178,25.94
		c9.332,3.479,16.133,10.438,16.133,23.251v3.005c0,25.94-17.873,35.746-40.017,35.746c-27.206,0-37.644-16.608-37.644-29.894
		c0-7.118,3.005-9.016,11.704-9.016c10.123,0,12.653,2.215,12.653,8.226c0,7.434,6.96,9.175,14.078,9.175
		C310.49,295.659,314.285,291.704,314.285,281.423z"/>
</g>
<rect x="59.814" y="445.281" style="fill:#AA2300;" width="392.37" height="33.026"/>
<rect x="256.001" y="445.281" style="fill:#891C00;" width="196.185" height="33.026"/>
<g>
</g>
<g>
</g>
<g>
</g>
<g>
</g>
<g>
</g>
<g>
</g>
<g>
</g>
<g>
</g>
<g>
</g>
<g>
</g>
<g>
</g>
<g>
</g>
<g>
</g>
<g>
</g>
<g>
</g>
</svg>
