<svg height="512" viewBox="0 0 64 64" width="512" xmlns="http://www.w3.org/2000/svg"><path d="m3 13h52v38h-52z" fill="#bddbff"/><path d="m3 5h52v8h-52z" fill="#006df0"/><path d="m25 37-1 10h-16l-1-10z" fill="#00ccb3"/><path d="m12 23h8v4h-8z" fill="#ffda44"/><path d="m23 17v4h-3v2h-8v-2h-3v-4h5a2 2 0 0 0 4 0z" fill="#d80027"/><path d="m35 24h26v25h-26z" fill="#bddbff"/><path d="m61 49v8a2.006 2.006 0 0 1 -2 2h-22a2.006 2.006 0 0 1 -2-2v-8z" fill="#2488ff"/><path d="m61 22v2h-26v-2a2.006 2.006 0 0 1 2-2h22a2.006 2.006 0 0 1 2 2z" fill="#2488ff"/><path d="m42 37h8v5h-8z" fill="#ffda44"/><path d="m53 31v4h-3v2h-8v-2h-3v-4h5a2 2 0 0 0 4 0z" fill="#d80027"/><circle cx="48" cy="54" fill="#ffda44" r="2"/><path d="m54 35v-4a1 1 0 0 0 -1-1h-5a1 1 0 0 0 -1 1 1 1 0 0 1 -2 0 1 1 0 0 0 -1-1h-5a1 1 0 0 0 -1 1v4a1 1 0 0 0 1 1h2v6a1 1 0 0 0 1 1h8a1 1 0 0 0 1-1v-6h2a1 1 0 0 0 1-1zm-11 6v-3h6v3zm9-7h-2a1 1 0 0 0 -1 1v1h-6v-1a1 1 0 0 0 -1-1h-2v-2h3.171a3 3 0 0 0 5.658 0h3.171z"/><path d="m59 19h-3v-14a1 1 0 0 0 -1-1h-52a1 1 0 0 0 -1 1v46a1 1 0 0 0 1 1h31v5a3 3 0 0 0 3 3h22a3 3 0 0 0 3-3v-35a3 3 0 0 0 -3-3zm1 3v1h-24v-1a1 1 0 0 1 1-1h22a1 1 0 0 1 1 1zm-56-16h50v6h-50zm0 44v-36h50v5h-17a3 3 0 0 0 -3 3v28zm55 8h-22a1 1 0 0 1 -1-1v-7h24v7a1 1 0 0 1 -1 1zm1-10h-24v-23h24z"/><path d="m48 51a3 3 0 1 0 3 3 3 3 0 0 0 -3-3zm0 4a1 1 0 1 1 1-1 1 1 0 0 1 -1 1z"/><path d="m55 40.586-1.293-1.293-1.414 1.414 2 2a1 1 0 0 0 1.414 0l3-3-1.414-1.414z"/><path d="m56 30h2v2h-2z"/><path d="m56 33h2v2h-2z"/><path d="m6 8h2v2h-2z"/><path d="m10 8h2v2h-2z"/><path d="m14 8h2v2h-2z"/><path d="m25 36h-3v-2h2v-2h-3a1 1 0 0 0 -1 1v3h-8v-3a1 1 0 0 0 -1-1h-3v2h2v2h-3a1 1 0 0 0 -1 1.1l1 10a1 1 0 0 0 1 .9h16a1 1 0 0 0 1-.9l1-10a1 1 0 0 0 -1-1.1zm-1.9 10h-14.2l-.8-8h1.9v1h2v-1h8v1h2v-1h1.9z"/><path d="m10 40h2v4h-2z"/><path d="m13 40h2v4h-2z"/><path d="m17 40h2v4h-2z"/><path d="m20 40h2v4h-2z"/><path d="m15 29v2h-2l3 4 3-4h-2v-2z"/><path d="m9 22h2v5a1 1 0 0 0 1 1h8a1 1 0 0 0 1-1v-5h2a1 1 0 0 0 1-1v-4a1 1 0 0 0 -1-1h-5a1 1 0 0 0 -1 1 1 1 0 0 1 -2 0 1 1 0 0 0 -1-1h-5a1 1 0 0 0 -1 1v4a1 1 0 0 0 1 1zm4 4v-2h6v2zm-3-8h3.171a3 3 0 0 0 5.658 0h3.171v2h-2a1 1 0 0 0 -1 1v1h-6v-1a1 1 0 0 0 -1-1h-2z"/></svg>