<svg id="Layer_3" enable-background="new 0 0 64 64" height="512" viewBox="0 0 64 64" width="512" xmlns="http://www.w3.org/2000/svg"><path d="m27 14h15v12h-15z" fill="#957552"/><path d="m27 14h12v12h-12z" fill="#c69c6d"/><path d="m38 26 10-10 6 6h-4v4z" fill="#ed6863"/><path d="m31 26-6-6-3 3 3 3z" fill="#ed6863"/><path d="m18 30h4v16h-4z" fill="#737373"/><path d="m22 30h4v16h-4z" fill="#e6e6e6"/><path d="m26 30h4v16h-4z" fill="#737373"/><path d="m30 30h4v16h-4z" fill="#e6e6e6"/><path d="m34 30h4v16h-4z" fill="#737373"/><path d="m38 30h4v16h-4z" fill="#e6e6e6"/><path d="m42 30h4v16h-4z" fill="#737373"/><path d="m46 30h4v16h-4z" fill="#e6e6e6"/><path d="m18 26h32v4h-32z" fill="#565656"/><path d="m18 26h29v4h-29z" fill="#737373"/><path d="m54 12c1.889-.63 3.37-2.111 4-4 .63 1.889 2.111 3.37 4 4-1.889.63-3.37 2.111-4 4-.63-1.889-2.111-3.37-4-4z" fill="#ed6863"/><path d="m2 42c1.889-.63 3.37-2.111 4-4 .63 1.889 2.111 3.37 4 4-1.889.63-3.37 2.111-4 4-.63-1.889-2.111-3.37-4-4z" fill="#ed6863"/><circle cx="46" cy="58" fill="#8d9299" r="4"/><ellipse cx="44.5" cy="58" fill="#bcc3cc" rx="2.5" ry="3.703"/><circle cx="26" cy="58" fill="#8d9299" r="4"/><ellipse cx="24.5" cy="58" fill="#bcc3cc" rx="2.5" ry="3.703"/><path d="m60 26h-6v26c0 1.105-.895 2-2 2h-32c-1.105 0-2-.895-2-2 0-1.105.895-2 2-2h30v-28h10c1.105 0 2 .895 2 2 0 1.105-.895 2-2 2z" fill="#737373"/><circle cx="12" cy="12" fill="#5f9747" r="10"/><ellipse cx="10.5" cy="12" fill="#7ec95f" rx="8.5" ry="9.875"/><path d="m52 55h-32c-1.654 0-3-1.346-3-3s1.346-3 3-3h29v-27c0-.553.448-1 1-1h10c1.654 0 3 1.346 3 3s-1.346 3-3 3h-5v25c0 1.654-1.346 3-3 3zm-32-4c-.551 0-1 .448-1 1s.449 1 1 1h32c.551 0 1-.448 1-1v-26c0-.553.448-1 1-1h6c.551 0 1-.448 1-1s-.449-1-1-1h-9v27c0 .553-.448 1-1 1z"/><path d="m50 47h-32c-.552 0-1-.447-1-1v-20c0-.553.448-1 1-1h32c.552 0 1 .447 1 1v20c0 .553-.448 1-1 1zm-31-2h30v-18h-30z"/><path d="m18 29h32v2h-32z"/><path d="m45 30h2v16h-2z"/><path d="m41 30h2v16h-2z"/><path d="m37 30h2v16h-2z"/><path d="m33 30h2v16h-2z"/><path d="m29 30h2v16h-2z"/><path d="m25 30h2v16h-2z"/><path d="m21 30h2v16h-2z"/><path d="m38.707 26.707-1.414-1.414 10-10c.391-.391 1.023-.391 1.414 0l6 6-1.414 1.414-5.293-5.293z"/><path d="m30.293 26.707-5.293-5.293-1.586 1.586 2.293 2.293-1.414 1.414-3-3c-.391-.391-.391-1.023 0-1.414l3-3c.391-.391 1.023-.391 1.414 0l6 6z"/><path d="m43 22h-2v-7h-13v7h-2v-8c0-.553.448-1 1-1h15c.552 0 1 .447 1 1z"/><path d="m27 17h15v2h-15z"/><path d="m26 63c-2.757 0-5-2.243-5-5s2.243-5 5-5 5 2.243 5 5-2.243 5-5 5zm0-8c-1.654 0-3 1.346-3 3s1.346 3 3 3 3-1.346 3-3-1.346-3-3-3z"/><path d="m46 63c-2.757 0-5-2.243-5-5s2.243-5 5-5 5 2.243 5 5-2.243 5-5 5zm0-8c-1.654 0-3 1.346-3 3s1.346 3 3 3 3-1.346 3-3-1.346-3-3-3z"/><path d="m12 23c-6.065 0-11-4.935-11-11s4.935-11 11-11 11 4.935 11 11-4.935 11-11 11zm0-20c-4.962 0-9 4.037-9 9s4.038 9 9 9 9-4.037 9-9-4.038-9-9-9z"/><path d="m6.343 11h11.314v2h-11.314z" transform="matrix(.707 -.707 .707 .707 -4.971 12)"/><path d="m9.5 11c-.827 0-1.5-.673-1.5-1.5s.673-1.5 1.5-1.5 1.5.673 1.5 1.5-.673 1.5-1.5 1.5zm0-2c-.276 0-.5.225-.5.5s.224.5.5.5.5-.225.5-.5-.224-.5-.5-.5z"/><path d="m14.5 16c-.827 0-1.5-.673-1.5-1.5s.673-1.5 1.5-1.5 1.5.673 1.5 1.5-.673 1.5-1.5 1.5zm0-2c-.276 0-.5.225-.5.5s.224.5.5.5.5-.225.5-.5-.224-.5-.5-.5z"/><path d="m58 17c-.431 0-.812-.275-.949-.684-.527-1.581-1.786-2.84-3.368-3.368-.408-.136-.683-.517-.683-.948s.275-.812.684-.948c1.582-.528 2.841-1.787 3.368-3.368.136-.409.517-.684.948-.684s.812.275.949.684c.527 1.581 1.786 2.84 3.368 3.368.408.136.683.517.683.948s-.275.812-.684.948c-1.582.528-2.841 1.787-3.368 3.368-.136.409-.517.684-.948.684zm-1.804-5c.701.492 1.312 1.104 1.804 1.804.492-.7 1.104-1.312 1.804-1.804-.701-.492-1.312-1.104-1.804-1.804-.492.7-1.104 1.312-1.804 1.804z"/><path d="m6 47c-.431 0-.812-.275-.949-.684-.527-1.581-1.786-2.84-3.368-3.368-.408-.136-.683-.517-.683-.948s.275-.812.684-.948c1.582-.528 2.841-1.787 3.368-3.368.136-.409.517-.684.948-.684s.812.275.949.684c.527 1.581 1.786 2.84 3.368 3.368.408.136.683.517.683.948s-.275.812-.684.948c-1.582.528-2.841 1.787-3.368 3.368-.136.409-.517.684-.948.684zm-1.804-5c.7.492 1.312 1.104 1.804 1.804.492-.7 1.104-1.312 1.804-1.804-.7-.492-1.312-1.104-1.804-1.804-.492.7-1.104 1.312-1.804 1.804z"/></svg>