<svg height="496pt" viewBox="0 0 496 496" width="496pt" xmlns="http://www.w3.org/2000/svg"><path d="m456 248v208c0 17.699219-14.300781 32-32 32h-352c-17.699219 0-32-14.300781-32-32v-208" fill="#e4725f"/><path d="m96 328v128h144v-128" fill="#b8cbd9"/><path d="m144 456v-64h48v64" fill="#fff"/><path d="m120 320v-40h48v40c0 13.300781-10.699219 24-24 24s-24-10.699219-24-24zm0 0" fill="#4472b2"/><path d="m216 320v-40h48v40c0 13.300781-10.699219 24-24 24s-24-10.699219-24-24zm0 0" fill="#4472b2"/><path d="m168 320v-40h48v40c0 13.300781-10.699219 24-24 24s-24-10.699219-24-24zm0 0" fill="#fff"/><path d="m72 320v-40h48v40c0 13.300781-10.699219 24-24 24s-24-10.699219-24-24zm0 0" fill="#fff"/><path d="m280 184h176c17.699219 0 32 14.300781 32 32s-14.300781 32-32 32h-416c-17.699219 0-32-14.300781-32-32s14.300781-32 32-32h176" fill="#af4a47"/><path d="m248 8c-17.699219 0-32 14.300781-32 32v160c0 17.699219 14.300781 32 32 32s32-14.300781 32-32v-160c0-17.699219-14.300781-32-32-32zm0 0" fill="#e4725f"/><path d="m104 64v40h-16l48 48 48-48h-16v-40zm0 0" fill="#f0d365"/><path d="m328 64v40h-16l48 48 48-48h-16v-40zm0 0" fill="#f0d365"/><path d="m456 256h-416c-22.101562 0-40-17.898438-40-40s17.898438-40 40-40h176v16h-176c-13.199219 0-24 10.800781-24 24s10.800781 24 24 24h416c13.199219 0 24-10.800781 24-24s-10.800781-24-24-24h-176v-16h176c22.101562 0 40 17.898438 40 40s-17.898438 40-40 40zm0 0"/><path d="m424 496h-352c-22.101562 0-40-17.898438-40-40v-208h16v208c0 13.199219 10.800781 24 24 24h352c13.199219 0 24-10.800781 24-24v-208h16v208c0 22.101562-17.898438 40-40 40zm0 0"/><path d="m248 240c-22.101562 0-40-17.898438-40-40v-160c0-22.101562 17.898438-40 40-40s40 17.898438 40 40v160c0 22.101562-17.898438 40-40 40zm0-224c-13.199219 0-24 10.800781-24 24v160c0 13.199219 10.800781 24 24 24s24-10.800781 24-24v-160c0-13.199219-10.800781-24-24-24zm0 0"/><path d="m240 192h16v16h-16zm0 0"/><path d="m240 352c-17.601562 0-32-14.398438-32-32h16c0 8.800781 7.199219 16 16 16s16-7.199219 16-16v-32h-176v32c0 8.800781 7.199219 16 16 16s16-7.199219 16-16h16c0 17.601562-14.398438 32-32 32s-32-14.398438-32-32v-40c0-4.398438 3.601562-8 8-8h192c4.398438 0 8 3.601562 8 8v40c0 17.601562-14.398438 32-32 32zm0 0"/><path d="m144 352c-17.601562 0-32-14.398438-32-32h16c0 8.800781 7.199219 16 16 16s16-7.199219 16-16h16c0 17.601562-14.398438 32-32 32zm0 0"/><path d="m192 352c-17.601562 0-32-14.398438-32-32h16c0 8.800781 7.199219 16 16 16s16-7.199219 16-16h16c0 17.601562-14.398438 32-32 32zm0 0"/><path d="m208 280h16v48h-16zm0 0"/><path d="m160 280h16v48h-16zm0 0"/><path d="m112 280h16v48h-16zm0 0"/><path d="m240 464h-144c-4.398438 0-8-3.601562-8-8v-112h16v104h128v-104h16v112c0 4.398438-3.601562 8-8 8zm0 0"/><path d="m200 456h-16v-56h-32v56h-16v-64c0-4.398438 3.601562-8 8-8h48c4.398438 0 8 3.601562 8 8zm0 0"/><path d="m384 416h16v40h-16zm0 0"/><path d="m384 384h16v16h-16zm0 0"/><path d="m416 384h16v72h-16zm0 0"/><path d="m416 352h16v16h-16zm0 0"/><path d="m352 432h16v24h-16zm0 0"/><path d="m352 400h16v16h-16zm0 0"/><path d="m320 416h16v40h-16zm0 0"/><path d="m320 384h16v16h-16zm0 0"/><path d="m288 432h16v24h-16zm0 0"/><path d="m288 400h16v16h-16zm0 0"/><path d="m293.699219 381.699219-11.300781-11.300781 40-40c3.101562-3.097657 8.203124-3.097657 11.300781 0l26.300781 26.300781 58.300781-58.300781 11.300781 11.300781-64 64c-3.101562 3.101562-8.203124 3.101562-11.300781 0l-26.300781-26.398438zm0 0"/><path d="m432 336h-16v-24h-24v-16h32c4.398438 0 8 3.601562 8 8zm0 0"/><path d="m136 160c-2 0-4.101562-.800781-5.699219-2.300781l-48-48c-2.300781-2.300781-3-5.699219-1.699219-8.699219 1.199219-3 4.199219-4.898438 7.398438-4.898438h8v-32.101562h16v40c0 3.398438-2.199219 6.398438-5.199219 7.5l29.199219 29.199219 29.199219-29.199219c-3-1.101562-5.199219-4.101562-5.199219-7.5v-40h16v32h8c3.199219 0 6.199219 1.898438 7.398438 4.898438 1.203124 3 .601562 6.402343-1.699219 8.703124l-48 48c-1.597657 1.597657-3.699219 2.398438-5.699219 2.398438zm0 0"/><path d="m96 32h16v16h-16zm0 0"/><path d="m96 0h16v16h-16zm0 0"/><path d="m160 32h16v16h-16zm0 0"/><path d="m160 0h16v16h-16zm0 0"/><path d="m360 160c-2 0-4.101562-.800781-5.699219-2.300781l-48-48c-2.300781-2.300781-3-5.699219-1.699219-8.699219 1.199219-3 4.199219-4.898438 7.398438-4.898438h8v-32.101562h16v40c0 3.398438-2.199219 6.398438-5.199219 7.5l29.199219 29.199219 29.199219-29.199219c-3-1.101562-5.199219-4.101562-5.199219-7.5v-40h16v32h8c3.199219 0 6.199219 1.898438 7.398438 4.898438 1.203124 3 .601562 6.402343-1.699219 8.703124l-48 48c-1.597657 1.597657-3.699219 2.398438-5.699219 2.398438zm0 0"/><path d="m320 32h16v16h-16zm0 0"/><path d="m320 0h16v16h-16zm0 0"/><path d="m384 32h16v16h-16zm0 0"/><path d="m384 0h16v16h-16zm0 0"/><path d="m272 448h184v16h-184zm0 0"/></svg>