<svg id="filled_outline" height="512" viewBox="0 0 512 512" width="512" xmlns="http://www.w3.org/2000/svg" data-name="filled outline"><path d="m48 232h336v232h-336z" fill="#548aff"/><path d="m408 216h-384l48-88h288z" fill="#ffc431"/><path d="m24 216h48a0 0 0 0 1 0 0v32a24 24 0 0 1 -24 24 24 24 0 0 1 -24-24v-32a0 0 0 0 1 0 0z" fill="#ffb401"/><path d="m72 216h48a0 0 0 0 1 0 0v32a24 24 0 0 1 -24 24 24 24 0 0 1 -24-24v-32a0 0 0 0 1 0 0z" fill="#ffcc4d"/><path d="m120 216h48a0 0 0 0 1 0 0v32a24 24 0 0 1 -24 24 24 24 0 0 1 -24-24v-32a0 0 0 0 1 0 0z" fill="#ffb401"/><path d="m168 216h48a0 0 0 0 1 0 0v32a24 24 0 0 1 -24 24 24 24 0 0 1 -24-24v-32a0 0 0 0 1 0 0z" fill="#ffcc4d"/><path d="m216 216h48a0 0 0 0 1 0 0v32a24 24 0 0 1 -24 24 24 24 0 0 1 -24-24v-32a0 0 0 0 1 0 0z" fill="#ffb401"/><path d="m264 216h48a0 0 0 0 1 0 0v32a24 24 0 0 1 -24 24 24 24 0 0 1 -24-24v-32a0 0 0 0 1 0 0z" fill="#ffcc4d"/><path d="m312 216h48a0 0 0 0 1 0 0v32a24 24 0 0 1 -24 24 24 24 0 0 1 -24-24v-32a0 0 0 0 1 0 0z" fill="#ffb401"/><path d="m360 216h48a0 0 0 0 1 0 0v32a24 24 0 0 1 -24 24 24 24 0 0 1 -24-24v-32a0 0 0 0 1 0 0z" fill="#ffcc4d"/><g fill="#ffe28f"><path d="m120 216 48-88h-48l-48 88z"/><path d="m216 216 48-88h-48l-48 88z"/><path d="m312 216 48-88h-48l-48 88z"/><path d="m408 216h-48l24-44z"/></g><path d="m88 304h160v128h-160z" fill="#9ce6ed"/><path d="m88 376 14.27572-2.85514a32 32 0 0 0 25.72428-31.37858v-37.76628h-40z" fill="#ffc431"/><path d="m88 376a32 32 0 0 1 32 32v24h-32z" fill="#ffc431"/><path d="m280 304h72v160h-72z" fill="#4976f2"/><path d="m363.16751 176h105.665a19.16751 19.16751 0 0 0 19.16749-19.16751 19.16755 19.16755 0 0 0 -2.29107-9.08732l-46.12334-85.65765a26.78744 26.78744 0 0 0 -23.58559-14.08752 26.78744 26.78744 0 0 0 -23.58557 14.08752l-46.12334 85.65763a19.16755 19.16755 0 0 0 -2.29109 9.08732 19.16751 19.16751 0 0 0 19.16751 19.16753z" fill="#ef5e3b"/><path d="m248 376-14.27572-2.85514a32 32 0 0 1 -25.72428-31.37858v-37.76628h40z" fill="#ffc431"/><path d="m248 376a32 32 0 0 0 -32 32v24h32z" fill="#ffc431"/><path d="m408 208h-82.52344l9.54688-17.50195-14.04688-7.66211-13.72607 25.16406h-29.77393l39.27295-72h11.25049v-16h-256a8.00011 8.00011 0 0 0 -7.02344 4.16895l-47.99975 87.99951a7.962 7.962 0 0 0 -.97681 3.83154v32a32.05773 32.05773 0 0 0 24 30.9873v185.0127a8.00039 8.00039 0 0 0 8 8h336a8.00039 8.00039 0 0 0 8-8v-185.0127a32.05773 32.05773 0 0 0 24-30.9873v-32a8.00039 8.00039 0 0 0 -8-8zm-56 40a16 16 0 0 1 -32 0v-24h32zm-48 0a16 16 0 0 1 -32 0v-24h32zm-92.74951-40h-29.77368l39.2727-72h29.77368zm-48 0h-29.77368l39.2727-72h29.77368zm-48 0h-29.77368l39.2727-72h29.77368zm-35.25049 16h32v24a16 16 0 0 1 -32 0zm48 0h32v24a16 16 0 0 1 -32 0zm48 0h32v24a16 16 0 0 1 -32 0zm48 0h32v24a16 16 0 0 1 -32 0zm35.25049-16h-29.77368l39.2727-72h29.77393zm-182.50149-72h29.77417l-39.2727 72h-29.77391zm-44.749 112v-24h32v24a16 16 0 0 1 -32 0zm312 208h-56v-144h56zm16 0v-152a8.00039 8.00039 0 0 0 -8-8h-72a8.00039 8.00039 0 0 0 -8 8v152h-216v-177.0127a32.03742 32.03742 0 0 0 16-9.85546 31.93351 31.93351 0 0 0 48 0 31.93351 31.93351 0 0 0 48 0 31.93351 31.93351 0 0 0 48 0 31.93351 31.93351 0 0 0 48 0 31.93351 31.93351 0 0 0 48 0 31.93351 31.93351 0 0 0 48 0 32.03536 32.03536 0 0 0 16 9.85546v177.0127zm40-208a16 16 0 0 1 -32 0v-24h32z"/><path d="m256 376.02v-72.02a8.00039 8.00039 0 0 0 -8-8h-160a8.00039 8.00039 0 0 0 -8 8v128a8.00039 8.00039 0 0 0 8 8h160a8.00039 8.00039 0 0 0 8-8zm-16-9.77881-4.707-.94141a24.064 24.064 0 0 1 -19.293-23.53318v-29.7666h24zm-126.1084 11.292a40.13609 40.13609 0 0 0 22.1084-35.76659v-29.7666h64v29.7666a40.13609 40.13609 0 0 0 22.1084 35.7666 39.92957 39.92957 0 0 0 -14.1084 30.4668v16h-80v-16a39.92957 39.92957 0 0 0 -14.1084-30.4668zm6.1084-65.53319v29.7666a24.06388 24.06388 0 0 1 -19.29395 23.5332l-4.70605.94141v-54.24121zm-24 73.376a24.03919 24.03919 0 0 1 16 22.624v16h-16zm128 38.624v-16a24.03919 24.03919 0 0 1 16-22.624v38.624z"/><circle cx="328" cy="376" r="8"/><path d="m446.62988 58.29492a34.78817 34.78817 0 0 0 -61.25976 0l-46.123 85.65723a27.168 27.168 0 0 0 23.92088 40.04785h105.664a27.168 27.168 0 0 0 23.9209-40.04785zm22.20212 109.70508h-105.664a11.16724 11.16724 0 0 1 -9.833-16.46191l46.123-85.65723a18.78727 18.78727 0 0 1 33.084 0l46.123 85.65723a11.16724 11.16724 0 0 1 -9.833 16.46191z"/><path d="m408 80h16v48h-16z"/><circle cx="416" cy="144" r="8"/></svg>