<svg height="512" viewBox="0 0 64 64" width="512" xmlns="http://www.w3.org/2000/svg"><g id="Smartphone"><path d="m39 9h22v14h-22z" fill="#fee9ab"/><path d="m57 9h4v14h-4z" fill="#ffd422"/><rect fill="#46f8ff" height="58" rx="2" width="32" x="3" y="3"/><path d="m35 5v54a2.006 2.006 0 0 1 -2 2h-4a2.006 2.006 0 0 0 2-2v-54a2.006 2.006 0 0 0 -2-2h4a2.006 2.006 0 0 1 2 2z" fill="#00b6bd"/><path d="m57 37a2.006 2.006 0 0 1 2-2 2.015 2.015 0 0 1 2 2v9l-4 11h-12l-4-11v-8a4 4 0 0 1 4-4v-13a2.006 2.006 0 0 1 2-2 2.015 2.015 0 0 1 2 2v12a2.006 2.006 0 0 1 2-2 2.015 2.015 0 0 1 2 2v2a2.006 2.006 0 0 1 2-2 2.015 2.015 0 0 1 2 2z" fill="#ffc477"/><path d="m61 37v9l-4 11h-2l4-11v-9a1.955 1.955 0 0 0 -.59-1.41 1.813 1.813 0 0 0 -.41-.32 2 2 0 0 1 1-.27 2.015 2.015 0 0 1 2 2z" fill="#ffa733"/><path d="m44 57h14v4h-14z" fill="#2488ff"/><path d="m54 57h4v4h-4z" fill="#005ece"/><path d="m30 37v4h-4v-4h2z" fill="#ffcd00"/><path d="m30 3-1 4h-20l-1-4z" fill="#ff7956"/><path d="m30 3-1 4h-4l1-4z" fill="#ff5023"/><path d="m28 33v4h-2-2v-4z" fill="#ffde55"/><path d="m26 37v4h-4v-4h2z" fill="#ffde55"/><path d="m24 33v4h-2-2v-4z" fill="#ffcd00"/><path d="m22 37v4h-4v-4h2z" fill="#ffcd00"/><path d="m19.04 13h-.04a10 10 0 0 0 -.04 20h.04a10 10 0 0 0 .04-20z" fill="#ffd422"/><path d="m20 33v4h-2-2v-4h2.96.04z" fill="#ffde55"/><path d="m18 37v4h-4v-4h2z" fill="#ffde55"/><path d="m16 33v4h-2-2v-4z" fill="#ffcd00"/><path d="m14 37v4h-4v-4h2z" fill="#ffcd00"/><path d="m12 33v4h-2-2v-4z" fill="#ffde55"/><path d="m29 23a10 10 0 0 1 -10 10h-.04a9.6 9.6 0 0 1 -1.94-.2 10 10 0 0 0 -.03-19.6 10.225 10.225 0 0 1 2.01-.2h.04a10 10 0 0 1 9.96 10z" fill="#ebbf00"/><g fill="#ffa733"><path d="m49 21v12h-2v-12a1.955 1.955 0 0 0 -.59-1.41 1.813 1.813 0 0 0 -.41-.32 2 2 0 0 1 1-.27 2.015 2.015 0 0 1 2 2z"/><path d="m52.41 31.59a1.955 1.955 0 0 0 -1.41-.59 2 2 0 0 0 -1 .27 1.813 1.813 0 0 1 .41.32 1.955 1.955 0 0 1 .59 1.41v2h2v-2a1.955 1.955 0 0 0 -.59-1.41z"/><path d="m57 35v2h-2v-2a1.955 1.955 0 0 0 -.59-1.41 1.813 1.813 0 0 0 -.41-.32 2 2 0 0 1 1-.27 2.015 2.015 0 0 1 2 2z"/></g><path d="m33 2h-28a3.009 3.009 0 0 0 -3 3v54a3.009 3.009 0 0 0 3 3h28a3.009 3.009 0 0 0 3-3v-54a3.009 3.009 0 0 0 -3-3zm-4.28 2-.5 2h-18.44l-.5-2zm5.28 55a1 1 0 0 1 -1 1h-28a1 1 0 0 1 -1-1v-54a1 1 0 0 1 1-1h2.22l.81 3.24a1 1 0 0 0 .97.76h20a1 1 0 0 0 .97-.76l.81-3.24h2.22a1 1 0 0 1 1 1z"/><path d="m8 51h-2v6a1 1 0 0 0 1 1h6v-2h-5z"/><path d="m6 47h2v2h-2z"/><path d="m19 18a2 2 0 0 1 2 2h2a4 4 0 0 0 -3-3.858v-1.142h-2v1.142a3.992 3.992 0 0 0 1 7.858 2 2 0 1 1 -2 2h-2a4 4 0 0 0 3 3.858v1.142h2v-1.142a3.992 3.992 0 0 0 -1-7.858 2 2 0 0 1 0-4z"/><path d="m61 24a1 1 0 0 0 1-1v-14a1 1 0 0 0 -1-1h-22a1 1 0 0 0 -1 1v14a1 1 0 0 0 1 1h5v9.1a5.017 5.017 0 0 0 -4 4.9v8a.974.974 0 0 0 .06.34l3.54 9.74a1.016 1.016 0 0 0 -.6.92v4a1 1 0 0 0 1 1h14a1 1 0 0 0 1-1v-4a1.016 1.016 0 0 0 -.6-.92l3.54-9.74a.974.974 0 0 0 .06-.34v-9a2.985 2.985 0 0 0 -4.11-2.78 2.9 2.9 0 0 0 -.76-1.33 2.971 2.971 0 0 0 -2.13-.89 3.02 3.02 0 0 0 -1.12.22 2.957 2.957 0 0 0 -3.88-2.04v-6.18zm-4 36h-12v-2h12zm-6-28a1 1 0 0 1 1 1v8h2v-6a1 1 0 0 1 1-1 .949.949 0 0 1 .71.31.928.928 0 0 1 .29.69v6h2v-4a1 1 0 0 1 1-1 .949.949 0 0 1 .71.31.928.928 0 0 1 .29.69v8.82l-3.7 10.18h-10.6l-3.7-10.18v-7.82a3.01 3.01 0 0 1 2-2.82v5.82h2v-20a1 1 0 0 1 2 0v20h2v-8a1 1 0 0 1 1-1zm-4-14a3.009 3.009 0 0 0 -3 3v1h-4v-12h20v12h-10v-1a3.009 3.009 0 0 0 -3-3z"/><path d="m30 36h-1v-3a1 1 0 0 0 -1-1h-2.7a11 11 0 1 0 -12.6 0h-4.7a1 1 0 0 0 -1 1v4a1 1 0 0 0 1 1h1v3a1 1 0 0 0 1 1h20a1 1 0 0 0 1-1v-4a1 1 0 0 0 -1-1zm-20-13a9 9 0 1 1 9 9 9.014 9.014 0 0 1 -9-9zm-1 13v-2h2v2zm4 4h-2v-2h2zm0-6h2v2h-2zm4 6h-2v-2h2zm0-6h2v2h-2zm4 6h-2v-2h2zm0-6h2v2h-2zm4 6h-2v-2h2zm0-6h2v2h-2zm4 6h-2v-2h2z"/></g></svg>