<svg height="512pt" viewBox="-77 0 512 512.00161" width="512pt" xmlns="http://www.w3.org/2000/svg"><path d="m349.867188 477.867188h-341.332032v-469.332032h264.53125l76.800782 76.800782zm0 0" fill="#e2e4cc"/><path d="m273.066406 8.535156v76.800782h76.800782zm0 0" fill="#d0ccaa"/><path d="m8.535156 349.867188h341.332032v153.601562h-341.332032zm0 0" fill="#b50006"/><g fill="#4d007e"><path d="m349.867188 512h-341.332032c-4.710937 0-8.535156-3.820312-8.535156-8.53125v-494.933594c0-4.710937 3.824219-8.535156 8.535156-8.535156h264.53125c2.261719 0 4.4375.898438 6.035156 2.5l76.800782 76.800781c1.601562 1.605469 2.5 3.773438 2.5 6.035157v418.132812c0 4.710938-3.824219 8.53125-8.535156 8.53125zm-332.800782-17.066406h324.269532v-406.066406l-71.800782-71.800782h-252.46875zm0 0"/><path d="m349.867188 93.867188h-76.800782c-4.710937 0-8.53125-3.820313-8.53125-8.53125v-76.800782c0-3.449218 2.082032-6.5625 5.265625-7.886718 3.179688-1.320313 6.859375-.585938 9.300781 1.851562l76.800782 76.800781c2.4375 2.441407 3.171875 6.109375 1.851562 9.300781-1.324218 3.191407-4.429687 5.265626-7.886718 5.265626zm-68.265626-17.066407h47.667969l-47.667969-47.667969zm0 0"/><path d="m349.867188 512h-341.332032c-4.710937 0-8.535156-3.820312-8.535156-8.53125v-153.601562c0-4.710938 3.824219-8.53125 8.535156-8.53125h341.332032c4.710937 0 8.535156 3.820312 8.535156 8.53125v153.601562c0 4.710938-3.824219 8.53125-8.535156 8.53125zm-332.800782-17.066406h324.269532v-136.53125h-324.269532zm0 0"/><path d="m59.734375 477.867188c-4.710937 0-8.535156-3.820313-8.535156-8.53125v-85.335938c0-4.707031 3.824219-8.53125 8.535156-8.53125s8.53125 3.824219 8.53125 8.53125v85.335938c0 4.710937-3.820313 8.53125-8.53125 8.53125zm0 0"/><path d="m298.667969 392.535156h-51.199219c-4.710938 0-8.535156-3.824218-8.535156-8.535156 0-4.707031 3.824218-8.53125 8.535156-8.53125h51.199219c4.710937 0 8.53125 3.824219 8.53125 8.53125 0 4.710938-3.820313 8.535156-8.53125 8.535156zm0 0"/><path d="m298.667969 435.203125h-51.199219c-4.710938 0-8.535156-3.824219-8.535156-8.535156 0-4.710938 3.824218-8.53125 8.535156-8.53125h51.199219c4.710937 0 8.53125 3.820312 8.53125 8.53125 0 4.710937-3.820313 8.535156-8.53125 8.535156zm0 0"/><path d="m247.46875 477.867188c-4.710938 0-8.535156-3.820313-8.535156-8.53125v-85.335938c0-4.707031 3.824218-8.53125 8.535156-8.53125s8.53125 3.824219 8.53125 8.53125v85.335938c0 4.710937-3.820312 8.53125-8.53125 8.53125zm0 0"/><path d="m85.335938 443.734375h-25.601563c-4.710937 0-8.535156-3.824219-8.535156-8.53125v-51.203125c0-4.707031 3.824219-8.53125 8.535156-8.53125h25.601563c18.824218 0 34.132812 15.308594 34.132812 34.132812 0 18.824219-15.308594 34.132813-34.132812 34.132813zm-17.070313-17.066406h17.070313c9.410156 0 17.066406-7.652344 17.066406-17.066407 0-9.414062-7.65625-17.066406-17.066406-17.066406h-17.070313zm0 0"/><path d="m162.132812 477.867188h-8.53125c-4.710937 0-8.535156-3.820313-8.535156-8.53125v-85.335938c0-4.707031 3.824219-8.53125 8.535156-8.53125h8.53125c28.230469 0 51.203126 22.960938 51.203126 51.199219s-22.972657 51.199219-51.203126 51.199219zm0-17.066407h.085938zm0-68.265625v68.265625c18.824219 0 34.132813-15.308593 34.132813-34.132812s-15.308594-34.132813-34.132813-34.132813zm0 0"/><path d="m173.066406 100.507812c-.835937.273438-11.308594 14.753907.816406 27.007813 8.074219-17.765625-.449218-27.128906-.816406-27.007813m5.160156 71.066407c-6.082031 20.777343-14.113281 43.210937-22.738281 63.519531 17.765625-6.808594 37.09375-12.757812 55.234375-16.964844-11.476562-13.164062-22.945312-29.609375-32.496094-46.554687m63.523438 55.277343c6.929688 5.265626 8.617188 7.925782 13.160156 7.925782 1.988282 0 7.660156-.082032 10.28125-3.703125 1.269532-1.757813 1.765625-2.882813 1.953125-3.472657-1.039062-.554687-2.429687-1.65625-9.992187-1.65625-4.300782-.007812-9.695313.179688-15.402344.90625m-115.960938 37.308594c-18.175781 10.078125-25.582031 18.363282-26.109374 23.039063-.085938.777343-.316407 2.808593 3.660156 5.8125 1.269531-.394531 8.667968-3.730469 22.449218-28.851563m-22.636718 43.042969c-2.960938 0-5.804688-.949219-8.226563-2.742187-8.847656-6.570313-10.042969-13.863282-9.480469-18.839844 1.542969-13.664063 18.664063-27.980469 50.890626-42.566406 12.792968-27.679688 24.960937-61.789063 32.214843-90.28125-8.480469-18.242188-16.734375-41.90625-10.726562-55.789063 2.109375-4.867187 4.746093-8.601563 9.644531-10.214844 1.945312-.625 6.84375-1.433593 8.644531-1.433593 4.382813 0 8.71875 5.460937 10.792969 8.855468 3.910156 6.375 3.875 13.40625 3.300781 20.582032-.542969 6.921874-1.703125 13.78125-3.042969 20.59375-1.050781 5.332031-2.238281 10.632812-3.507812 15.914062 11.460938 23.371094 27.691406 47.1875 43.253906 63.496094 11.152344-1.988282 20.746094-2.996094 28.5625-2.996094 13.300782 0 21.382813 3.0625 24.667969 9.371094 2.730469 5.222656 1.605469 11.332031-3.320313 18.140625-4.734374 6.546875-11.253906 10-18.875 10-10.351562 0-22.382812-6.449219-35.8125-19.191407-24.125 4.984376-52.292968 13.867188-75.070312 23.699219-7.105469 14.898438-13.917969 26.894531-20.265625 35.703125-8.6875 12.074219-16.203125 17.699219-23.644531 17.699219"/></g></svg>