<svg id="Fill_out_line" height="512" viewBox="0 0 512 512" width="512" xmlns="http://www.w3.org/2000/svg" data-name="Fill out line"><path d="m336 152h-96v-72h136z" fill="#fc7"/><path d="m376 80v104h-40v-32z" fill="#fda725"/><path d="m240 184h96v-32h-96z" fill="#fcb73f"/><path d="m24 376 80-192h352l-80 192z" fill="#dc9265"/><path d="m320 224h-40l-16 32h42.286z" fill="#808080"/><path d="m289.143 296h40l17.143-40h-40z" fill="#3e3e3e"/><path d="m289.143 296h40l17.143-40h-40z" fill="#808080"/><path d="m346.286 256 13.714-32h-40l-13.714 32z" fill="#ccc"/><path d="m244 296-20 40h48l17.143-40z" fill="#808080"/><path d="m312 336h40l17.143-40h-40z" fill="#ccc"/><path d="m346.286 256-17.143 40h40l17.143-40z" fill="#e6e6e6"/><path d="m400 224h-40l-13.714 32h40z" fill="#808080"/><path d="m289.143 296-17.143 40h40l17.143-40z" fill="#f7f7f7"/><path d="m360 32h128v80h-128z" fill="#3ea7ff"/><path d="m479.60059 32a80.00674 80.00674 0 0 1 -79.60059 72h-40v8h128v-80z" fill="#2b7cd4"/><path d="m408 112h48v72h-48z" fill="#ad693d"/><path d="m440 112v40a32.00018 32.00018 0 0 1 -32 32h48v-72z" fill="#8e5428"/><path d="m456 184v304h-80v-112z" fill="#8e5428"/><path d="m24 376h352v112h-352z" fill="#ad693d"/><path d="m56 408h288v48h-288z" fill="#dc9265"/><path d="m216 376h-72v-48h24a24 24 0 0 1 24 24 24 24 0 0 0 24 24z" fill="#2b7cd4"/><path d="m24 424v-72a24 24 0 0 1 24-24h120a24 24 0 0 0 -24 24v72z" fill="#87c9ff"/><path d="m192 352a24 24 0 0 0 24 24 24 24 0 0 0 24-24v-256a32 32 0 0 1 32-32h-128a32 32 0 0 0 -32 32v232h56a24 24 0 0 1 24 24z" fill="#3ea7ff"/><path d="m240 120h64v-24a32 32 0 0 0 -32-32 32 32 0 0 0 -32 32z" fill="#2b7cd4"/><path d="m144 88h64v16h-64z"/><path d="m136 128h32v16h-32z"/><path d="m184 128h32v16h-32z"/><path d="m136 168h32v16h-32z"/><path d="m184 168h32v16h-32z"/><path d="m184 208h32v16h-32z"/><path d="m184 288h32v16h-32z"/><path d="m136 208h32v16h-32z"/><path d="m136 248h80v16h-80z"/><path d="m136 288h32v16h-32z"/><path d="m48 352h72v16h-72z"/><path d="m64 384h40v16h-40z"/><path d="m488 24h-128a8.00039 8.00039 0 0 0 -8 8v40h-48.022a39.9633 39.9633 0 0 0 -31.978-16h-128a40.04584 40.04584 0 0 0 -40 40v80a7.99975 7.99975 0 0 0 -7.38477 4.92285l-58.61987 140.6875a32.05122 32.05122 0 0 0 -21.99536 30.38965v136a8.00039 8.00039 0 0 0 8 8h432a8.00039 8.00039 0 0 0 8-8v-368h24a8.00039 8.00039 0 0 0 8-8v-80a8.00039 8.00039 0 0 0 -8-8zm-117.333 344h-126.97218a31.79207 31.79207 0 0 0 4.30518-16v-8h104a8.00075 8.00075 0 0 0 7.35352-4.84863l48-112a8.00014 8.00014 0 0 0 -7.35352-11.15137h-120a8.00022 8.00022 0 0 0 -7.15527 4.42188l-24.84473 49.68945v-78.11133h196zm-122.667-62.11133.94434-1.88867h28.06591l-10.28564 24h-18.72461zm46.41846-1.88867h22.59179l-10.28564 24h-22.5918zm6.85693-16 10.28561-24h22.59179l-10.28564 24zm33.14307 16h22.59179l-10.28564 24h-22.5918zm29.44873-16h-22.5918l10.28561-24h22.59179zm17.14306-40h-22.59179l6.85693-16h22.5918zm-40 0h-22.59179l6.85693-16h22.5918zm-40 0h-24.06591l8-16h22.92285zm-32.06591 16h25.20849l-10.28564 24h-26.92285zm93.98486-144h5.0708v56h-24v-21.92749zm-34.9292 56h-80v-16h80zm56 0v-56h16v56zm-32-88v18.72729l-20.707 37.27271h-83.293v-16h80v-16h-16v-16a40.00029 40.00029 0 0 0 -.80518-8zm-80-16a24.0275 24.0275 0 0 1 24 24v16h-48v-16a24.0275 24.0275 0 0 1 24-24zm-152 24a24.0275 24.0275 0 0 1 24-24h96.01855a39.79739 39.79739 0 0 0 -8.01855 24v256a16 16 0 0 1 -32 0 32.03667 32.03667 0 0 0 -32-32h-48zm-56 336h80a8.00039 8.00039 0 0 0 8-8v-8h184v32h-272zm88-80a16 16 0 0 1 32 0 31.79207 31.79207 0 0 0 4.30518 16h-36.30518zm-48-147.20068v115.20068h-47.99976zm-72 147.20068a16.01833 16.01833 0 0 1 16-16h92.29492a31.80288 31.80288 0 0 0 -4.29492 16v64h-104zm0 80h16v24a8.00039 8.00039 0 0 0 8 8h288a8.00039 8.00039 0 0 0 8-8v-48a8.00039 8.00039 0 0 0 -8-8h-192v-16h216v96h-336zm352 48v-102.39941l64-153.6001v255.99951zm64-304h-32v-56h32zm32-72h-112v-64h112z"/><path d="m400 64h32v16h-32z"/><path d="m448 64h16v16h-16z"/></svg>