<?xml version="1.0" encoding="iso-8859-1"?>
<!-- Generator: Adobe Illustrator 19.0.0, SVG Export Plug-In . SVG Version: 6.00 Build 0)  -->
<svg version="1.1" id="Layer_1" xmlns="http://www.w3.org/2000/svg" xmlns:xlink="http://www.w3.org/1999/xlink" x="0px" y="0px"
	 viewBox="0 0 512.001 512.001" style="enable-background:new 0 0 512.001 512.001;" xml:space="preserve">
<path style="fill:#FFFA94;" d="M147.555,120.852c-1.422,3.442-3.397,6.595-5.813,9.354l38.92,181.513
	c0.603,2.81,3.446,5.109,6.32,5.109h251.409c2.873,0,5.718-2.299,6.32-5.109l40.926-190.867L147.555,120.852L147.555,120.852z"/>
<path style="fill:#FFCB00;" d="M237.156,95.066V67.071c0-2.873,2.351-5.224,5.224-5.224h3.031V42.86
	c0-2.873-2.351-5.224-5.225-5.224h-76.236c-2.873,0-5.224,2.351-5.224,5.224v52.207h78.429V95.066z"/>
<path style="opacity:0.1;enable-background:new    ;" d="M180.809,95.066V42.86c0-2.873,2.351-5.224,5.224-5.224h-22.082
	c-2.873,0-5.224,2.351-5.224,5.224v52.207h22.082V95.066z"/>
<path style="fill:#FDF900;" d="M313.521,95.066V61.847h-71.14c-2.873,0-5.224,2.351-5.224,5.224v27.995
	C237.156,95.066,313.521,95.066,313.521,95.066z"/>
<path style="opacity:0.1;enable-background:new    ;" d="M259.176,95.066V67.071c0-2.873,2.351-5.224,5.224-5.224h-22.02
	c-2.873,0-5.225,2.351-5.225,5.224v27.995H259.176z"/>
<path style="fill:#F39600;" d="M389.886,95.066V44.261h-71.141c-2.873,0-5.224,2.351-5.224,5.224v45.581H389.886z"/>
<path style="opacity:0.1;enable-background:new    ;" d="M336.499,95.066V49.486c0-2.873,2.351-5.224,5.224-5.224h-22.978
	c-2.873,0-5.224,2.351-5.224,5.224v45.581H336.499z"/>
<path style="fill:#E9510F;" d="M476.571,95.066V30.303c0-2.873-2.351-5.224-5.224-5.224H395.11c-2.873,0-5.224,2.351-5.224,5.224
	v64.764H476.571z"/>
<path style="opacity:0.1;enable-background:new    ;" d="M412.776,95.066V30.303c0-2.873,2.351-5.224,5.224-5.224H395.11
	c-2.873,0-5.224,2.351-5.224,5.224v64.764H412.776z"/>
<path style="fill:#35D34F;" d="M493.714,95.066h-346.16c1.642,3.975,2.553,8.327,2.553,12.894c0,4.566-0.911,8.918-2.552,12.892
	h346.159c5.747,0,10.449-4.702,10.449-10.449v-4.888C504.163,99.768,499.461,95.066,493.714,95.066z"/>
<g style="opacity:0.1;">
	<path style="opacity:0.1;enable-background:new    ;" d="M203.034,311.72l-40.926-190.867h-14.552
		c0.044-0.107,0.082-0.216,0.124-0.324c-1.433,3.565-3.447,6.833-5.937,9.678l38.92,181.513c0.603,2.81,3.446,5.109,6.32,5.109
		h22.37C206.48,316.828,203.636,314.529,203.034,311.72z"/>
</g>
<path style="fill:#BFBFBF;" d="M217.766,401.55l-19.48,33.811c-1.435,2.49-3.781,2.49-5.216,0l-19.479-33.811
	c-13.939,7.781-23.372,22.693-23.372,39.818c0,25.159,20.354,45.557,45.459,45.557c25.108,0,45.459-20.397,45.459-45.557
	C241.137,424.243,231.705,409.331,217.766,401.55z"/>
<path style="fill:#737373;" d="M206.517,421.076l-8.23,14.285c-1.435,2.49-3.781,2.49-5.216,0l-8.23-14.285
	c-7.216,3.88-12.125,11.51-12.125,20.291c0,12.71,10.28,23.013,22.963,23.013c12.684,0,22.964-10.303,22.964-23.013
	C218.642,432.585,213.734,424.954,206.517,421.076z"/>
<path style="fill:#35D34F;" d="M220.329,388.032c2.873,0,4.051,2.036,2.616,4.526l-24.66,42.802c-1.435,2.49-3.781,2.49-5.216,0
	l-24.659-42.802c-1.435-2.49-0.257-4.526,2.616-4.526H220.329z"/>
<path style="opacity:0.1;enable-background:new    ;" d="M185.182,392.558c-1.435-2.49-0.257-4.526,2.616-4.526h-16.77
	c-2.873,0-4.051,2.036-2.616,4.526l24.659,42.802c1.435,2.49,3.781,2.49,5.216,0l5.776-10.027L185.182,392.558z"/>
<path style="fill:#BFBFBF;" d="M416.233,401.55l-19.479,33.811c-1.435,2.49-3.781,2.49-5.216,0l-19.479-33.811
	c-13.938,7.781-23.371,22.693-23.371,39.818c0,25.159,20.353,45.557,45.458,45.557s45.459-20.397,45.459-45.557
	C439.605,424.243,430.172,409.331,416.233,401.55z"/>
<path style="fill:#737373;" d="M404.984,421.076l-8.23,14.285c-1.435,2.49-3.781,2.49-5.216,0l-8.23-14.285
	c-7.217,3.879-12.125,11.51-12.125,20.291c0,12.71,10.281,23.013,22.964,23.013c12.683,0,22.964-10.303,22.964-23.013
	C417.109,432.585,412.201,424.954,404.984,421.076z"/>
<path style="fill:#35D34F;" d="M418.796,388.032c2.873,0,4.051,2.036,2.616,4.526l-24.659,42.802c-1.435,2.49-3.781,2.49-5.216,0
	l-24.659-42.802c-1.435-2.49-0.257-4.526,2.616-4.526H418.796z"/>
<path style="opacity:0.1;enable-background:new    ;" d="M383.714,392.558c-1.435-2.49-0.257-4.526,2.616-4.526h-16.833
	c-2.873,0-4.051,2.036-2.616,4.526l24.659,42.802c1.435,2.49,3.781,2.49,5.216,0l5.809-10.082L383.714,392.558z"/>
<path style="fill:#35D34F;" d="M81.015,54.591c0,5.747-4.702,10.449-10.449,10.449h-52.28c-5.747,0-10.449-4.702-10.449-10.449
	v-4.426c0-5.747,4.702-10.449,10.449-10.449h52.28c5.747,0,10.449,4.702,10.449,10.449V54.591z"/>
<path style="opacity:0.1;enable-background:new    ;" d="M30.302,54.591v-4.426c0-5.747,4.702-10.449,10.449-10.449H18.286
	c-5.747,0-10.449,4.702-10.449,10.449v4.426c0,5.747,4.702,10.449,10.449,10.449h22.465C35.004,65.04,30.302,60.338,30.302,54.591z"
	/>
<path style="opacity:0.1;enable-background:new    ;" d="M189.41,110.403v-4.888c0-5.747,4.702-10.449,10.449-10.449h-52.304
	c1.642,3.975,2.553,8.327,2.553,12.894c0,4.566-0.911,8.918-2.552,12.892h52.303C194.112,120.852,189.41,116.15,189.41,110.403z"/>
<circle style="fill:#009E2F;" cx="116.308" cy="107.959" r="33.802"/>
<circle style="fill:#35D34F;" cx="116.308" cy="107.959" r="13.08"/>
<path d="M441.866,331.213H262.269c-4.328,0-7.837,3.508-7.837,7.837c0,4.329,3.509,7.837,7.837,7.837h179.597
	c4.328,0,7.837-3.508,7.837-7.837C449.703,334.722,446.194,331.213,441.866,331.213z"/>
<path d="M493.714,87.23h-9.307V65.828c0-4.329-3.509-7.837-7.837-7.837s-7.837,3.508-7.837,7.837V87.23h-71.011V32.915h71.011v6.791
	c0,4.329,3.509,7.837,7.837,7.837s7.837-3.508,7.837-7.837v-9.403c0-7.202-5.859-13.061-13.061-13.061H395.11
	c-7.202,0-13.061,5.859-13.061,13.061v6.122h-63.304c-7.202,0-13.061,5.859-13.061,13.061v4.524h-52.436V42.86
	c0-7.202-5.859-13.061-13.061-13.061h-13.444c-4.328,0-7.837,3.508-7.837,7.837s3.509,7.837,7.837,7.837h10.832v9.466
	c-4.828,1.919-8.256,6.63-8.256,12.133V87.23h-62.756V45.472h30.921c4.328,0,7.837-3.508,7.837-7.837s-3.509-7.837-7.837-7.837
	h-33.533c-7.202,0-13.061,5.859-13.061,13.061v41.943c-7.48-11.134-20.19-18.479-34.583-18.479c-0.835,0-1.662,0.031-2.485,0.08
	C113.031,53.604,102.388,43.43,89.41,43.43h-1.86c-2.689-6.756-9.281-11.551-16.984-11.551h-52.28C8.203,31.878,0,40.082,0,50.164
	v4.426c0,10.082,8.203,18.286,18.286,18.286h52.28c8.523,0,15.682-5.87,17.698-13.774h1.145c4.849,0,8.794,3.961,8.794,8.83
	c0,0.508,0.049,1.016,0.147,1.514l0.171,0.875c-14.085,6.683-23.851,21.039-23.851,37.638c0,22.355,17.709,40.643,39.835,41.591
	l35.603,173.334c0.611,2.977,1.68,5.764,3.087,8.329h-17.203c-17.797,0-32.276,14.502-32.276,32.328
	c0,17.825,14.479,32.327,32.276,32.327h25.321c0.095,0.203,0.194,0.405,0.307,0.602l1.528,2.651
	c-12.618,9.772-20.766,25.066-20.766,42.245c0,29.441,23.908,53.393,53.296,53.393s53.296-23.952,53.296-53.393
	c0-17.177-8.148-32.472-20.766-42.245l1.528-2.651c0.114-0.197,0.213-0.399,0.307-0.602H359.78c0.095,0.203,0.194,0.405,0.307,0.602
	l1.528,2.651c-12.618,9.772-20.766,25.068-20.766,42.245c0,29.441,23.908,53.393,53.295,53.393
	c29.388,0,53.296-23.952,53.296-53.393c0-17.178-8.148-32.473-20.766-42.245l1.527-2.651c0.114-0.197,0.213-0.399,0.307-0.602
	h15.574c4.328,0,7.837-3.508,7.837-7.837c0-4.329-3.509-7.837-7.837-7.837H135.992c-9.154,0-16.602-7.47-16.602-16.654
	c0-9.184,7.448-16.655,16.602-16.655h93.885c4.328,0,7.837-3.508,7.837-7.837c0-4.329-3.509-7.837-7.837-7.837h-50.373
	c-6.77,0-12.676-4.828-14.042-11.481l-35.424-172.471c2.333-0.817,4.571-1.838,6.697-3.039l36.268,169.142
	c1.381,6.443,7.393,11.301,13.982,11.301h251.409c6.589,0,12.6-4.858,13.983-11.302l39.597-184.673h1.742
	c10.082,0,18.286-8.203,18.286-18.286v-4.888C512,95.433,503.796,87.23,493.714,87.23z M73.178,54.591
	c0,1.417-1.196,2.612-2.612,2.612h-52.28c-1.416,0-2.612-1.195-2.612-2.612v-4.426c0-1.416,1.196-2.612,2.612-2.612h52.28
	c1.416,0,2.612,1.196,2.612,2.612V54.591z M410.461,395.868l-16.315,28.321l-16.315-28.321H410.461z M369.541,412.877l3.491,6.06
	c-5.958,5.629-9.686,13.598-9.686,22.43c0,17.011,13.817,30.85,30.8,30.85c8.213,0,15.938-3.199,21.751-9.007
	c3.062-3.061,3.064-8.022,0.004-11.083c-3.058-3.059-8.021-3.064-11.083-0.004c-2.853,2.852-6.643,4.422-10.673,4.422
	c-8.34,0-15.127-6.809-15.127-15.176c0-2.95,0.846-5.704,2.306-8.034l3.422,5.94c2.09,3.627,5.603,5.792,9.399,5.792
	c3.795,0,7.309-2.165,9.399-5.792l3.417-5.93c0.699,1.111,1.273,2.313,1.663,3.606c1.253,4.143,5.628,6.485,9.77,5.233
	c4.143-1.253,6.486-5.627,5.233-9.77c-1.609-5.323-4.531-9.922-8.341-13.519l3.466-6.017c7.963,6.919,13.017,17.12,13.017,28.49
	c0,20.799-16.877,37.72-37.623,37.72c-20.744,0-37.622-16.92-37.622-37.72C356.524,429.997,361.579,419.798,369.541,412.877z
	 M211.994,395.868l-16.316,28.321l-16.315-28.321H211.994z M210.805,441.366c0,8.369-6.786,15.176-15.127,15.176
	c-8.34,0-15.126-6.809-15.126-15.176c0-2.95,0.846-5.703,2.306-8.034l3.421,5.94c2.09,3.627,5.603,5.792,9.399,5.792
	c3.795,0,7.309-2.165,9.399-5.792l3.422-5.94C209.959,435.663,210.805,438.417,210.805,441.366z M171.074,412.877l3.491,6.06
	c-5.957,5.629-9.685,13.599-9.685,22.43c0,17.011,13.817,30.85,30.799,30.85s30.8-13.839,30.8-30.85
	c0-8.83-3.728-16.801-9.686-22.43l3.491-6.06c7.963,6.92,13.017,17.12,13.017,28.49c0,20.799-16.877,37.72-37.623,37.72
	s-37.623-16.92-37.623-37.72C158.056,429.997,163.111,419.797,171.074,412.877z M116.309,133.924
	c-14.316,0-25.963-11.646-25.963-25.964s11.646-25.964,25.963-25.964s25.963,11.646,25.963,25.964S130.624,133.924,116.309,133.924z
	 M321.357,52.098h60.692V87.23h-60.692V52.098z M244.993,69.684h60.691V87.23h-60.691V69.684z M150.173,132.138
	c0.795-1.111,1.536-2.261,2.221-3.449h44.836l2.635,22.522h-45.602L150.173,132.138z M157.623,166.884h44.076l3.108,26.55h-41.491
	L157.623,166.884z M172.395,235.656c-0.008,0-0.017,0.001-0.025,0.001l-5.693-26.55h39.964l3.106,26.549L172.395,235.656
	L172.395,235.656z M175.73,251.33h35.852l3.106,26.55h-33.265L175.73,251.33z M188.093,308.991l-3.31-15.437h31.739l1.807,15.437
	H188.093z M269.596,308.991h-35.487l-1.807-15.437h37.293V308.991z M269.596,277.881h-39.127l-3.106-26.55h42.234V277.881z
	 M269.596,235.656h-44.069l-3.106-26.549h47.175V235.656z M269.596,193.434h-49.009l-3.108-26.55h52.116V193.434z M269.596,151.211
	h-53.95l-2.635-22.522h56.585V151.211z M332.386,308.991h-47.118v-15.437h47.118V308.991z M332.386,277.881h-47.118V251.33h47.118
	V277.881z M332.386,193.434h-7.423c-4.328,0-7.837,3.508-7.837,7.837c0,4.329,3.509,7.837,7.837,7.837h7.423v26.549h-47.118v-26.549
	h9.393c4.328,0,7.837-3.508,7.837-7.837c0-4.329-3.509-7.837-7.837-7.837h-9.392v-26.55h47.118v26.55H332.386z M332.386,151.211
	h-47.118v-22.522h47.118V151.211z M384.654,308.991H348.06v-15.437h38.392L384.654,308.991z M388.277,277.881H348.06V251.33h43.308
	L388.277,277.881z M393.193,235.656h-45.132v-26.549h48.224L393.193,235.656z M348.06,193.434v-26.55h53.139l-3.091,26.55H348.06z
	 M437.284,308.991h-36.849l1.797-15.437h38.361L437.284,308.991z M443.954,277.881h-39.898l3.091-26.55h42.499L443.954,277.881z
	 M453.007,235.656h-44.035l3.091-26.549H458.7L453.007,235.656z M462.061,193.434h-48.173l3.091-26.55h50.774L462.061,193.434z
	 M471.114,151.211h-52.31l2.622-22.522h54.517L471.114,151.211z M496.327,110.403c0,1.416-1.196,2.612-2.612,2.612h-97.698
	c-4.328,0-7.837,3.508-7.837,7.837s3.509,7.837,7.837,7.837h9.631l-2.622,22.522h-54.965v-22.522h16.609
	c4.328,0,7.837-3.508,7.837-7.837s-3.509-7.837-7.837-7.837H157.626c0.202-1.658,0.318-3.343,0.318-5.055
	c0-1.714-0.116-3.398-0.319-5.057h336.089c1.416,0,2.612,1.196,2.612,2.612V110.403z"/>
<path d="M116.309,87.043c-11.534,0-20.917,9.383-20.917,20.918c0,11.534,9.383,20.918,20.917,20.918s20.918-9.383,20.918-20.918
	C137.225,96.426,127.842,87.043,116.309,87.043z M116.309,113.205c-2.891,0-5.243-2.352-5.243-5.244
	c0-2.892,2.352-5.244,5.243-5.244c2.891,0,5.244,2.353,5.244,5.244C121.552,110.853,119.2,113.205,116.309,113.205z"/>
<g>
</g>
<g>
</g>
<g>
</g>
<g>
</g>
<g>
</g>
<g>
</g>
<g>
</g>
<g>
</g>
<g>
</g>
<g>
</g>
<g>
</g>
<g>
</g>
<g>
</g>
<g>
</g>
<g>
</g>
</svg>
