<svg height="512" viewBox="0 0 64 64" width="512" xmlns="http://www.w3.org/2000/svg"><g id="cart-website-calculator-money"><path d="m3 10h54v42h-54z" fill="#e9e9ea"/><rect fill="#3e3d42" height="31" rx="2" width="29" x="31" y="30"/><path d="m6 36h25v24h-25z" fill="#64c37d"/><path d="m31 39v18h-18a4 4 0 0 0 -4-4v-10a4 4 0 0 0 4-4z" fill="#91dc5a"/><circle cx="14" cy="30" fill="#ff9811" r="2"/><circle cx="24" cy="30" fill="#ff9811" r="2"/><g fill="#e9e9ea"><path d="m43 52h5v5h-5z"/><path d="m34 52h5v5h-5z"/><path d="m43 44h5v5h-5z"/><path d="m34 44h5v5h-5z"/><path d="m52 44h5v13h-5z"/></g><path d="m34 33h23v7h-23z" fill="#2488ff"/><path d="m27 17-1 8h-13v-6.92-1.08z" fill="#ff9811"/><circle cx="23" cy="48" fill="#ffda44" r="8"/><path d="m3 4h54v6h-54z" fill="#00d7df"/><path d="m58 29v-25a1 1 0 0 0 -1-1h-54a1 1 0 0 0 -1 1v48a1 1 0 0 0 1 1h2v7a1 1 0 0 0 1 1h24.78a2.986 2.986 0 0 0 2.22 1h25a3.009 3.009 0 0 0 3-3v-27a3.009 3.009 0 0 0 -3-3zm-54-24h52v4h-52zm26 51h-2.9a8.977 8.977 0 0 0 2.9-2.36zm-7-1a7 7 0 1 1 7-7 7.008 7.008 0 0 1 -7 7zm-4.1 1h-5a5.01 5.01 0 0 0 -3.9-3.9v-8.2a5.01 5.01 0 0 0 3.9-3.9h5a8.981 8.981 0 0 0 0 16zm11.1-13.64a8.977 8.977 0 0 0 -2.9-2.36h2.9zm0-4.36h-17a1 1 0 0 0 -1 1 3.009 3.009 0 0 1 -3 3 1 1 0 0 0 -1 1v10a1 1 0 0 0 1 1 3.009 3.009 0 0 1 3 3 1 1 0 0 0 1 1h17v1h-23v-22h23zm0-6v3h-24a1 1 0 0 0 -1 1v15h-1v-40h52v18h-23a3.009 3.009 0 0 0 -3 3zm29 27a1 1 0 0 1 -1 1h-25a1 1 0 0 1 -1-1v-27a1 1 0 0 1 1-1h25a1 1 0 0 1 1 1z"/><path d="m57 32h-23a1 1 0 0 0 -1 1v7a1 1 0 0 0 1 1h23a1 1 0 0 0 1-1v-7a1 1 0 0 0 -1-1zm-1 7h-21v-5h21z"/><path d="m39 43h-5a1 1 0 0 0 -1 1v5a1 1 0 0 0 1 1h5a1 1 0 0 0 1-1v-5a1 1 0 0 0 -1-1zm-1 5h-3v-3h3z"/><path d="m48 43h-5a1 1 0 0 0 -1 1v5a1 1 0 0 0 1 1h5a1 1 0 0 0 1-1v-5a1 1 0 0 0 -1-1zm-1 5h-3v-3h3z"/><path d="m39 51h-5a1 1 0 0 0 -1 1v5a1 1 0 0 0 1 1h5a1 1 0 0 0 1-1v-5a1 1 0 0 0 -1-1zm-1 5h-3v-3h3z"/><path d="m48 51h-5a1 1 0 0 0 -1 1v5a1 1 0 0 0 1 1h5a1 1 0 0 0 1-1v-5a1 1 0 0 0 -1-1zm-1 5h-3v-3h3z"/><path d="m57 43h-5a1 1 0 0 0 -1 1v13a1 1 0 0 0 1 1h5a1 1 0 0 0 1-1v-13a1 1 0 0 0 -1-1zm-1 13h-3v-11h3z"/><path d="m52 36h2v2h-2z"/><path d="m48 36h2v2h-2z"/><path d="m6 6h2v2h-2z"/><path d="m10 6h2v2h-2z"/><path d="m14 6h2v2h-2z"/><path d="m24 27h-10a3 3 0 1 0 3 3 2.966 2.966 0 0 0 -.184-1h4.368a2.966 2.966 0 0 0 -.184 1 3 3 0 1 0 3-3zm-9 3a1 1 0 1 1 -1-1 1 1 0 0 1 1 1zm9 1a1 1 0 1 1 1-1 1 1 0 0 1 -1 1z"/><path d="m27.75 16.34a.981.981 0 0 0 -.75-.34h-13v-2a1 1 0 0 0 -1-1h-4v2h3v10a1 1 0 0 0 1 1h13a1 1 0 0 0 .99-.88l1-8a.968.968 0 0 0 -.24-.78zm-2.63 7.66h-11.12v-6h11.87z"/><path d="m27 50a3.009 3.009 0 0 1 -3 3v1h-2v-1a3.009 3.009 0 0 1 -3-3h2a1 1 0 0 0 1 1h2a1 1 0 0 0 0-2h-2a3 3 0 0 1 0-6v-1h2v1a3.009 3.009 0 0 1 3 3h-2a1 1 0 0 0 -1-1h-2a1 1 0 0 0 0 2h2a3.009 3.009 0 0 1 3 3z"/><path d="m34 16h6v2h-6z"/><path d="m43 16h10v2h-10z"/><path d="m34 22h12v2h-12z"/></g></svg>