<svg height="512" viewBox="0 0 64 64" width="512" xmlns="http://www.w3.org/2000/svg"><g id="Message"><rect fill="#ff3051" height="24" rx="6" width="50" x="11" y="37"/><path d="m36.394 61h18.606a6 6 0 0 0 6-6v-11.97c-2.942 8.785-12.18 14.093-24.606 17.97z" fill="#e52b49"/><path d="m61 9v16a6 6 0 0 1 -6 6h-40l-12 12v-34a6 6 0 0 1 6-6h46a6 6 0 0 1 6 6z" fill="#ffcd00"/><circle cx="17" cy="17" fill="#ffeb99" r="8"/><circle cx="49" cy="49" fill="#ffeb99" r="8"/><path d="m18 18h-2a4 4 0 0 0 -4 4v1.24a7.982 7.982 0 0 0 10 0v-1.24a4 4 0 0 0 -4-4z" fill="#006df0"/><circle cx="17" cy="14" fill="#006df0" r="2"/><path d="m50 50h-2a4 4 0 0 0 -4 4v1.24a7.982 7.982 0 0 0 10 0v-1.24a4 4 0 0 0 -4-4z" fill="#006df0"/><circle cx="49" cy="46" fill="#006df0" r="2"/><path d="m36.394 31h18.606a6 6 0 0 0 6-6v-13.97c-2.942 8.785-12.18 16.093-24.606 19.97z" fill="#ebbf00"/><g fill="#231f20"><path d="m55 2h-46a7.008 7.008 0 0 0 -7 7v34a1 1 0 0 0 1.707.707l11.707-11.707h39.586a7.008 7.008 0 0 0 7-7v-16a7.008 7.008 0 0 0 -7-7zm5 23a5.006 5.006 0 0 1 -5 5h-40a1 1 0 0 0 -.707.293l-10.293 10.293v-31.586a5.006 5.006 0 0 1 5-5h46a5.006 5.006 0 0 1 5 5z"/><path d="m17 8a9 9 0 1 0 9 9 9.011 9.011 0 0 0 -9-9zm-4 14.736v-.736a3 3 0 0 1 3-3h2a3 3 0 0 1 3 3v.736a6.961 6.961 0 0 1 -8 0zm9.849-1.9a5 5 0 0 0 -4.849-3.836h-2a5 5 0 0 0 -4.849 3.835 7 7 0 1 1 11.7 0z"/><path d="m20 14a3 3 0 1 0 -3 3 3 3 0 0 0 3-3zm-3 1a1 1 0 1 1 1-1 1 1 0 0 1 -1 1z"/><path d="m49 40a9 9 0 1 0 9 9 9.011 9.011 0 0 0 -9-9zm-4 14.736v-.736a3 3 0 0 1 3-3h2a3 3 0 0 1 3 3v.736a6.961 6.961 0 0 1 -8 0zm9.849-1.9a5 5 0 0 0 -4.849-3.836h-2a5 5 0 0 0 -4.849 3.835 7 7 0 1 1 11.7 0z"/><path d="m52 46a3 3 0 1 0 -3 3 3 3 0 0 0 3-3zm-3 1a1 1 0 1 1 1-1 1 1 0 0 1 -1 1z"/><path d="m55 36h-38a7.008 7.008 0 0 0 -7 7v12a7.008 7.008 0 0 0 7 7h38a7.008 7.008 0 0 0 7-7v-12a7.008 7.008 0 0 0 -7-7zm5 19a5.006 5.006 0 0 1 -5 5h-38a5.006 5.006 0 0 1 -5-5v-12a5.006 5.006 0 0 1 5-5h38a5.006 5.006 0 0 1 5 5z"/><path d="m55 16h-24a1 1 0 0 0 0 2h24a1 1 0 0 0 0-2z"/><path d="m55 20h-24a1 1 0 0 0 0 2h24a1 1 0 0 0 0-2z"/><path d="m35 44h-18a1 1 0 0 0 0 2h18a1 1 0 0 0 0-2z"/><path d="m35 48h-18a1 1 0 0 0 0 2h18a1 1 0 0 0 0-2z"/><path d="m35 52h-18a1 1 0 0 0 0 2h18a1 1 0 0 0 0-2z"/><path d="m55 12h-24a1 1 0 0 0 0 2h24a1 1 0 0 0 0-2z"/></g></g></svg>